<svg xmlns="http://www.w3.org/2000/svg" viewBox="0 0 767.391 756.441"><style><![CDATA[.A{fill:#304e74}]]></style><path class="A" d="M767.4 756.44H0V0h767.4zm-730.4-37h693.4V37H37zm346.695-243.225c-39.635 0-75.367-23.875-90.534-60.494a98.01 98.01 0 0 1 21.242-106.799 98.02 98.02 0 0 1 106.793-21.242 97.98 97.98 0 0 1 60.493 90.53c-.06 54.098-43.898 97.934-97.994 97.994zm0-159.27a61.28 61.279 0 0 0-43.33 104.609c17.525 17.52 43.882 22.768 66.78 13.28a61.28 61.279 0 0 0 37.827-56.611c-.038-33.828-27.45-61.238-61.277-61.28zm-91.78-257.468"/></svg>