<svg xmlns="http://www.w3.org/2000/svg" viewBox="0 0 24 24">
  <path d="M12 12.242h-.06a4.664 4.664 0 0 1-3.199-8.003 4.788 4.788 0 0 1 3.314-1.325 4.665 4.665 0 0 1-.057 9.329zm-.003-8.08a3.414 3.414 0 0 0-.04 6.829 3.455 3.455 0 0 0 3.456-3.372 3.413 3.413 0 0 0-3.372-3.456zm7.363 16.3l-.004-2.58a3.126 3.126 0 0 0-3.366-2.784l-7.997-.01a3.694 3.694 0 0 0-2.405.843 2.586 2.586 0 0 0-.945 1.929l.004 2.58h-1.25l-.004-2.58a3.799 3.799 0 0 1 1.385-2.881 4.941 4.941 0 0 1 3.216-1.142H8l8 .01c2.542.003 4.612 1.812 4.614 4.032l.004 2.58z" fill="hsl(0, 0%, 100%)"/>
</svg>