<!-- <svg class="translate-icon" xmlns="http://www.w3.org/2000/svg" viewBox="0 0 224 224" fill="#454545" font-family="none">
  <path d="M178.5 115.5v-7h-28V98h-7v10.5h-13.416l2.916 7h30.142c-2.153 3.82-5.722 9.464-10.892 15.494-3.147-3.507-6.335-7.427-9.373-11.802l-5.75 3.994c3.364 4.847 6.888 9.16 10.346 12.98-1.85 1.862-3.846 3.717-6.002 5.53l4.498 5.36c2.272-1.907 4.38-3.857 6.332-5.8 10.097 10.07 18.588 15.407 19.1 15.732l3.686-5.953c-.12-.073-8.306-5.215-18.01-14.917 7.64-8.767 12.15-16.884 14.01-20.608z"/>
  <path d="M185.5 63h-69.545l-11.2-29.26c-.5-1.33-1.82-2.24-3.255-2.24h-63C32.725 31.5 28 36.225 28 42v112c0 5.775 4.725 10.5 10.5 10.5h67.48l9.695 29.12c.385 1.2 1.4 2.065 2.625 2.3.245.035.455.07.7.07h66.5c5.775 0 10.5-4.725 10.5-10.5v-112c0-5.775-4.725-10.5-10.5-10.5zm-147 94.5A3.51 3.51 0 0 1 35 154V42a3.51 3.51 0 0 1 3.5-3.5h60.585l42.84 119zm74.865 7h25.83L120.4 185.64zm75.635 21a3.51 3.51 0 0 1-3.5 3.5h-58.695l22.82-25.7h-.035c.105-.105.2-.2.28-.315.665-.945.805-2.17.385-3.255L118.615 70H185.5a3.51 3.51 0 0 1 3.5 3.5z"/>
  <path d="M139.195 164.5L120.4 185.64l-7.035-21.14zM84.602 112h-15.26l-3.528 14H56l16.674-52.5h8.554L98 126h-9.817zm-13.048-7h10.853L76.95 85z"/>
</svg> -->

   <svg xmlns="http://www.w3.org/2000/svg" >
      <symbol id="translate-icon" class="translate-icon" viewBox="0 0 224 224">
        <title>Click to translate</title>
        <path d="M178.5 115.5v-7h-28V98h-7v10.5h-13.416l2.916 7h30.142c-2.153 3.82-5.722 9.464-10.892 15.494-3.147-3.507-6.335-7.427-9.373-11.802l-5.75 3.994c3.364 4.847 6.888 9.16 10.346 12.98-1.85 1.862-3.846 3.717-6.002 5.53l4.498 5.36c2.272-1.907 4.38-3.857 6.332-5.8 10.097 10.07 18.588 15.407 19.1 15.732l3.686-5.953c-.12-.073-8.306-5.215-18.01-14.917 7.64-8.767 12.15-16.884 14.01-20.608z"/>
        <path d="M185.5 63h-69.545l-11.2-29.26c-.5-1.33-1.82-2.24-3.255-2.24h-63C32.725 31.5 28 36.225 28 42v112c0 5.775 4.725 10.5 10.5 10.5h67.48l9.695 29.12c.385 1.2 1.4 2.065 2.625 2.3.245.035.455.07.7.07h66.5c5.775 0 10.5-4.725 10.5-10.5v-112c0-5.775-4.725-10.5-10.5-10.5zm-147 94.5A3.51 3.51 0 0 1 35 154V42a3.51 3.51 0 0 1 3.5-3.5h60.585l42.84 119zm74.865 7h25.83L120.4 185.64zm75.635 21a3.51 3.51 0 0 1-3.5 3.5h-58.695l22.82-25.7h-.035c.105-.105.2-.2.28-.315.665-.945.805-2.17.385-3.255L118.615 70H185.5a3.51 3.51 0 0 1 3.5 3.5z"/>
        <path d="M139.195 164.5L120.4 185.64l-7.035-21.14zM84.602 112h-15.26l-3.528 14H56l16.674-52.5h8.554L98 126h-9.817zm-13.048-7h10.853L76.95 85z"/>
      </symbol>
    </svg>