<svg xmlns="http://www.w3.org/2000/svg" viewBox="0 0 800 800">
  <title>Artboard 1</title>
  <path id="rectangle-border" d="M783.7,778.221H16.305V21.779H783.7Zm-730.39-37H746.7V58.779H53.305Z"/>
  <!-- W -->
  <path id="letter-1" d="M229,291.351v0H192v0L172.4,190.529,152.8,291.351v0h-37v0l-38.1-196h37l19.6,100.822L153.9,95.355h37l19.6,100.821L230.1,95.354h37Z"/>
  <!-- I -->
  <path id="letter-2" d="M302.874,291.354h-37v-196h37Z"/>
  <!-- TT -->
  <path id="letter-3" d="M485.492,132.354H453.961V291.33h-37V132.354H379.968v159h-37v-159H311.492v-37H416.961V95.33h37v.024h31.531Z"/>
  <!-- E -->
  <path id="letter-4" d="M531.11,132.355v42.5h56v37h-56v42.5h56v37h-93v-196h93v37Z"/>
  <!-- N -->
  <path id="letter-5" d="M712.567,95.354v196h-37L633.374,190.9V291.354h-37v-196h37v0l42.193,100.921V95.354Z"/>
  <!-- B -->
  <path id="letter-6" d="M192.248,434.891a61.509,61.509,0,0,0-21.6-46.614,50.4,50.4,0,0,0,12.184-32.747c0-28.951-25.172-52.583-56.453-53.416v-.056h-37v196h37v-.007C162.726,497.884,192.248,469.619,192.248,434.891ZM145.827,355.53c0,8.474-8.746,15.7-19.453,16.4V339.135C137.081,339.836,145.827,347.056,145.827,355.53ZM126.374,461.051V408.733c15.95.155,28.874,11.827,28.874,26.158S142.324,460.9,126.374,461.051Z"/>
  <!-- R -->
  <path id="letter-7" d="M317.815,498.058,279.9,409.634c13.163-10.415,19.608-27.964,19.608-48.247,0-32.4-27.7-58.8-61.941-59.305v-.024h-37v196h37V397.2l43.25,100.859ZM262.506,361.387c0,12.024-11.1,21.853-24.941,22.308V339.08C251.407,339.535,262.506,349.363,262.506,361.387Zm-24.941,25.464.057.178h-.057Z"/>
  <!-- O -->
  <path id="letter-8" d="M398.437,497.994A97.994,97.994,0,1,1,496.43,400,98.105,98.105,0,0,1,398.437,497.994Zm0-159.271A61.277,61.277,0,1,0,459.714,400,61.347,61.347,0,0,0,398.437,338.723Z"/>
  <!-- C -->
  <path id="letter-9" d="M587.665,498.058H561.123a97.994,97.994,0,1,1,0-195.988h26.542v36.717H561.123a61.278,61.278,0,0,0,0,122.555h26.542Z"/>
  <!-- K -->
  <path id="letter-10" d="M666.989,391.881l45.53,106.177h-37l-42.145-98.284v98.284h-37v-196h37V385.21l42.193-83.152h37Z"/>
  <!-- D -->
  <path id="letter-11" d="M218.624,606.483c0-51.87-40.819-94.449-92.25-97.782v-.008c-.149,0-.3-.014-.447-.02q-.876-.054-1.756-.091c-.9-.052-1.8-.1-2.691-.1H89.374v196h31.444c.309,0,.62-.018.93-.023q.676-.014,1.352-.035c.314-.012.627-.02.94-.035q1.051-.043,2.1-.11l.237-.012v0C177.805,700.932,218.624,658.353,218.624,606.483Zm-92.25,60.94V545.544c31,3.234,55.25,29.328,55.25,60.939S157.378,664.188,126.374,667.423Z"/>
  <!-- E -->
  <path id="letter-12" d="M252.874,545.483v42.5h50v37h-50v42.5h50v37h-87v-196h87v37Z"/>
  <!-- S -->
  <path id="letter-13" d="M409.838,642.866c-.055,23.112-11.707,43.3-31.169,53.993-11.55,6.348-19.8,8.4-32.057,9.145-7.433.453-10.576,0-15.865,0a114.7,114.7,0,0,1-18.336-1.991,1.478,1.478,0,0,0-.305,0q.158-18.432.314-36.865a126.464,126.464,0,0,0,17.806,2.228c8.375.37,8.5.606,16.2-.507,5.562-.872,11.628-2.743,14.487-4.314,7.529-4.139,13.255-11.929,12.06-21.775-.978-8.054-9.446-16.55-19.53-25.532-44.765-33.9-43.252-62.839-38.189-77.3,4.85-13.847,17.029-24.315,34.3-29.473,13.456-4.017,28.911-5.34,41.663-1.11,9.072,3.009,5.634,1.519,12.4,4.583l0,43.329a61.782,61.782,0,0,0-25.4-12.939c-13.431-3.5-24.089-.516-27.422,6.407-3.52,7.313,4.815,19.4,15.765,29.715C388.4,597.848,409.9,617.779,409.838,642.866Z"/>
  <!-- I -->
  <path id="letter-14" d="M449.3,508.483v196h-37v-196Z"/>
  <!-- G -->
  <path id="letter-15" d="M489.281,606.156a61.293,61.293,0,0,0,61.224,61.224h.476V624.668H517.066V587.983h70.6V704.064h-37.16a97.908,97.908,0,1,1,0-195.815h37.16v36.684h-37.16A61.293,61.293,0,0,0,489.281,606.156Z"/>
  <!-- N -->
  <path id="letter-16" d="M712.567,508.483v196h-37v-.167l-.32.133L633.421,604.407V704.483h-37v-196h37v0l42.146,100.806V508.483Z"/>
</svg>
