<svg xmlns="http://www.w3.org/2000/svg" viewBox="0 0 767.391 756.441" width="130px" height="130px"><style><![CDATA[.A{fill:#304e74}]]></style><path class="A" d="M767.4 756.442H0V0h767.4zm-730.4-37h693.4V37H37zM249.57 73.575h37v196h-37zm228.235 0h37v196h-37z"/><path d="M496.805 232.575h74v37h-74zm0-79.5h74v37h-74zm0-79.5h74v37h-74zm162.457 0h37v196h-37zm-79.192 0h37v196h-37z" class="A"/><path d="M659.262 269.575l-76.33-181.727 34.136-14.272 75.964 181.693-33.77 14.306zm-277.13 206.64c-39.635 0-75.367-23.875-90.535-60.493s-6.784-78.767 21.242-106.793 70.175-36.4 106.793-21.243 60.493 50.9 60.493 90.535c-.06 54.095-43.898 97.932-97.993 97.994zm0-159.27a61.28 61.28 0 1 0 61.277 61.278c-.038-33.827-27.45-61.24-61.277-61.277zM199.57 486.704h37v196h-37z" class="A"/><path d="M218.53 645.704h68.04v37h-68.04zm0-79.5h68.04v37h-68.04zm0-79.5h68.04v37h-68.04zm177.47 0h37v196h-37zm-292.432 196c-8.228.004-16.425-1-24.404-3.02l9.12-35.585a62.53 62.53 0 0 0 15.283 1.886c34.05 0 61.75-27.5 61.75-61.28s-27.7-61.28-61.75-61.28a62.76 62.76 0 0 0-12.725 1.299l-7.578-35.94a100.02 100.02 0 0 1 20.303-2.077c54.45 0 98.75 43.962 98.75 98s-44.3 98-98.75 98z" class="A"/><path class="A" d="M110.068 682.5l-5.555.215q-15.722 0-31.445 0v-196h32.107l4.893.2zM571.36 476.3h-26.542c-54.12 0-97.994-43.873-97.994-97.994s43.873-97.994 97.994-97.994h26.542v36.717h-26.542c-33.843 0-61.277 27.434-61.277 61.277s27.435 61.277 61.277 61.277h26.542zm87.902 10.404h37v196h-37zm-79.145 0h37v196h-37z"/><path d="M582.98 500.976l34.137-14.272 75.963 181.694-34.137 14.272zm-2.9-220.696h37v196h-37z" class="A"/><path d="M646.7 377.95h-37l49.56-97.672h37L646.7 377.95z" class="A"/><path d="M659.215 476.28h37l-47.612-111.03h-37l47.612 111.03zM136.498 269.575h-37l-38.098-196h37l38.098 196z" class="A"/><path d="M99.497 269.575h37l38.098-196h-37l-38.098 196z" class="A"/><path d="M212.694 269.575h-37l-38.1-196h37l38.1 196z" class="A"/><path d="M175.692 269.575h37l38.1-196h-37l-38.1 196zM73.07 280.28h37v196h-37z" class="A"/><path class="A" d="M109.748 476.28v-37c16.098 0 29.195-11.738 29.195-26.167s-13.097-26.166-29.195-26.166l.18-36.786c36.5 0 66.014 28.122 66.014 62.952s-29.695 63.167-66.195 63.167z"/><path class="A" d="M108.756 386.92l-.4-36.713c11.468 0 21.157-7.536 21.157-16.457s-9.7-16.456-21.157-16.456v-37c32.068 0 58.157 23.98 58.157 53.456s-25.698 53.17-57.766 53.17zM330.12 647.088c5.563-.872 11.628-2.743 14.488-4.314 7.53-4.138 13.255-11.93 12.06-21.774-1.358-11.2-17.174-23.23-31.693-36.244-3.657-3.277-13.204-15.597-16.74-18.9l25.42-25c3.284 3.055 5.64 9.225 9.552 12.27 24.007 18.686 50.392 40.15 50.326 67.938-.055 23.112-11.707 43.296-31.17 53.993-11.55 6.348-19.802 8.397-32.057 9.144-7.433.453-10.576 0-15.864 0a114.62 114.62 0 0 1-18.336-1.991 1.73 1.73 0 0 0-.305-.002q.157-18.432.314-36.865a126.36 126.36 0 0 0 17.806 2.229c8.374.37 8.5.606 16.198-.507z"/><path class="A" d="M387.306 535.498a61.78 61.78 0 0 0-25.401-12.939c-13.43-3.503-24.1-.516-27.422 6.407-4.574 9.502 10.86 27.063 26.05 38.328l-21.8 29.38c-46.412-34.422-44.917-63.876-39.794-78.506 4.85-13.847 17.03-24.315 34.296-29.473 13.456-4.018 28.9-5.34 41.663-1.1 9.072 3 5.634 1.52 12.397 4.583zM184.26 280.28h37v196h-37z"/><path d="M264.5 476.28h37L253.9 365.25h-37l47.61 111.03z" class="A"/><path class="A" d="M231.747 397.947l-11.487-36c14.304 0 25.94-10.017 25.94-22.33s-11.637-22.33-25.94-22.33v-37c34.706 0 62.94 26.615 62.94 59.33s-16.75 58.338-51.455 58.338zm94.916-324.372h37v196h-37zm73.994-.025h37v196h-37z"/><path d="M295.187 73.575h174v37h-174zm276.173 608.7H534.2c-54.034-.055-97.8-43.873-97.8-97.908s43.775-97.853 97.8-97.908h37.16v36.684H534.2c-21.892-.028-42.132 11.635-53.086 30.6s-10.954 42.314 0 61.27 31.195 30.617 53.086 30.6h37.16z" class="A"/><path d="M534.676 566.877h36.685v103.3h-36.685z" class="A"/><path d="M500.76 566.204h70.6v36.685h-70.6z" class="A"/></svg>