<svg version="1" xmlns="http://www.w3.org/2000/svg" width="933.333" height="933.333" viewBox="0 0 700.000000 700.000000"><path d="M0 350v350h700V0H0v350zm635.5 0v285.5h-571L64.2 351c-.1-156.5 0-285.1.3-285.8.3-1 58-1.2 285.7-1l285.3.3V350z"/><path d="M334.5 215.1c-41.2 4.6-79 29-100.8 64.9-32.1 53.1-23.6 121.9 20.4 165.9 53 53 138.8 53 191.8 0 62.3-62.3 49.6-166.5-25.9-212.2-25.2-15.2-55.7-21.8-85.5-18.6zm38.4 67.4c20.7 7 37.9 24.3 44.7 45.1 2.6 8 2.9 10.2 2.9 22.4s-.3 14.4-2.9 22.4c-6.9 21-24.2 38.3-45.3 45.2-7.9 2.6-10.1 2.9-22.3 2.9-12.2 0-14.4-.3-22.3-2.9-21.1-6.9-38.4-24.2-45.3-45.2-2.6-8-2.9-10.2-2.9-22.4s.3-14.4 2.9-22.3c3.4-10.4 8.6-19 16.4-27 9.9-10.2 19.7-16 33.7-19.8 10.8-2.9 29.1-2.2 40.4 1.6z"/></svg>