<svg xmlns="http://www.w3.org/2000/svg" width="300" height="60" fill="#fff"><path d="M81.436 21.462v-1.254a.339.339 0 0 1 .288-.383.378.378 0 0 1 .095 0h1.33V6.522h-1.33a.338.338 0 0 1-.383-.286.316.316 0 0 1 0-.1V4.86a.339.339 0 0 1 .287-.384.386.386 0 0 1 .1 0q3.274-.153 5.347-.154 6.8 0 6.805 5a5.252 5.252 0 0 1-1.667 4.089 6.487 6.487 0 0 1-4.528 1.509 15.525 15.525 0 0 1-1.765-.077v5h2.123a.339.339 0 0 1 .384.287.386.386 0 0 1 0 .1v1.254a.339.339 0 0 1-.287.384.316.316 0 0 1-.1 0H81.82a.339.339 0 0 1-.383-.289.347.347 0 0 1 0-.095zm4.58-15.016v6.42c.153.017.546.025 1.176.025q3.838 0 3.838-3.4a2.8 2.8 0 0 0-.629-1.933 2.85 2.85 0 0 0-1.458-.909 8.524 8.524 0 0 0-2.008-.2zm9.744 9.26a8.576 8.576 0 0 1 .589-3.326 5.006 5.006 0 0 1 1.534-2.123 6.455 6.455 0 0 1 3.94-1.356 6.376 6.376 0 0 1 2.634.487 5.242 5.242 0 0 1 1.676 1.125 5.166 5.166 0 0 1 1.024 1.842 8.508 8.508 0 0 1 .422 2.814 7.181 7.181 0 0 1-1.727 5.206 5.881 5.881 0 0 1-4.413 1.778 5.4 5.4 0 0 1-4.182-1.625 6.891 6.891 0 0 1-1.497-4.822zm5.884 4.35a2.436 2.436 0 0 0 2.238-1.138 6.551 6.551 0 0 0 .7-3.39 6.545 6.545 0 0 0-.7-3.389A2.484 2.484 0 0 0 101.594 11q-2.943 0-2.942 4.145 0 4.9 2.993 4.9zM115 9.63a3.46 3.46 0 0 1 2.123-.73 5.909 5.909 0 0 1 1.765.205.437.437 0 0 1 .307.461v3.453a.339.339 0 0 1-.287.384.316.316 0 0 1-.1 0h-1.663a.317.317 0 0 1-.358-.384l.1-1.483a2.524 2.524 0 0 0-.434-.026 2.391 2.391 0 0 0-1.945.959 4 4 0 0 0-.767 2.571v4.784h2.814a.339.339 0 0 1 .383.288.378.378 0 0 1 0 .095v1.254a.339.339 0 0 1-.287.384.385.385 0 0 1-.1 0h-7.035a.339.339 0 0 1-.384-.287.316.316 0 0 1 0-.1v-1.25a.339.339 0 0 1 .288-.383.309.309 0 0 1 .1 0h1.356V11.28H109.5a.339.339 0 0 1-.384-.287.316.316 0 0 1 0-.1V9.567a.339.339 0 0 1 .287-.384.316.316 0 0 1 .1 0h3.376a.414.414 0 0 1 .435.384l.28 1.816A4.252 4.252 0 0 1 115 9.631zm10.1 1.65v6.446a3.7 3.7 0 0 0 .306 1.74 1.212 1.212 0 0 0 1.152.537 3.922 3.922 0 0 0 1.637-.358.3.3 0 0 1 .409.2l.46 1.176a.7.7 0 0 1 .026.218c0 .093-.086.192-.256.294a6.453 6.453 0 0 1-2.916.614q-2.277 0-2.993-1.177a3.327 3.327 0 0 1-.588-1.484 19.424 19.424 0 0 1-.1-2.046v-6.16h-1.458a.339.339 0 0 1-.383-.288.309.309 0 0 1 0-.1V9.567a.339.339 0 0 1 .287-.384.385.385 0 0 1 .1 0h1.458V5.73a.339.339 0 0 1 .288-.383.309.309 0 0 1 .1 0h2.1a.339.339 0 0 1 .384.287.343.343 0 0 1 0 .1v3.45h2.583a.339.339 0 0 1 .384.287.316.316 0 0 1 0 .1v1.33a.339.339 0 0 1-.287.384.316.316 0 0 1-.1 0zm9.62-8.134v16.68h1.612a.339.339 0 0 1 .383.288.378.378 0 0 1 0 .095v1.254a.339.339 0 0 1-.287.384.385.385 0 0 1-.1 0h-6.1a.339.339 0 0 1-.384-.287.316.316 0 0 1 0-.1V20.2a.339.339 0 0 1 .288-.383.309.309 0 0 1 .1 0h1.612V4.86h-1.38a.339.339 0 0 1-.384-.287.316.316 0 0 1 0-.1V3.146a.339.339 0 0 1 .287-.384.316.316 0 0 1 .1 0h3.862a.339.339 0 0 1 .384.287.316.316 0 0 1-.003.097zm10.642 11.102v-.895q0-1.816-1.023-2.277a3.76 3.76 0 0 0-1.407-.205 1.921 1.921 0 0 0-2.1 1.637q-.076.384-.383.384h-1.638c-.272 0-.392-.128-.357-.384a3.2 3.2 0 0 1 1.509-2.737 6.715 6.715 0 0 1 3.581-.87q4.58 0 4.58 4.2v6.728h1.1a.339.339 0 0 1 .384.287.343.343 0 0 1 0 .1v1.254a.339.339 0 0 1-.287.384.316.316 0 0 1-.1 0h-3.018q-.333 0-.384-.384l-.18-1.177a4.661 4.661 0 0 1-3.991 1.868 4.217 4.217 0 0 1-2.712-.857 3.31 3.31 0 0 1-1.074-2.75 3.392 3.392 0 0 1 2.072-3.4 10.5 10.5 0 0 1 4.093-.871q.5-.01 1.335-.035zm.052 3.735v-1.97a11.171 11.171 0 0 0-3.019.23q-.562.23-1 .46a1.633 1.633 0 0 0-.818 1.586q0 1.765 2.02 1.765a3.119 3.119 0 0 0 2.072-.627 1.855 1.855 0 0 0 .744-1.445zm5.602-7.06V9.567a.339.339 0 0 1 .287-.384.386.386 0 0 1 .1 0h3.48q.333 0 .4.384l.23 1.483a4.63 4.63 0 0 1 4.088-2.15q3.966 0 3.966 4.35v6.575h1.484a.339.339 0 0 1 .383.288.378.378 0 0 1 0 .1v1.254a.339.339 0 0 1-.287.384.385.385 0 0 1-.1 0h-5.577a.339.339 0 0 1-.383-.288.309.309 0 0 1 0-.1V20.2a.339.339 0 0 1 .288-.383.378.378 0 0 1 .095 0h1.228v-5.3a5.119 5.119 0 0 0-.409-2.353 1.761 1.761 0 0 0-1.689-.742 3.036 3.036 0 0 0-2.123.768 2.3 2.3 0 0 0-.844 1.739v5.884h1.585a.339.339 0 0 1 .384.287.343.343 0 0 1 0 .1v1.254a.339.339 0 0 1-.287.384.316.316 0 0 1-.1 0h-5.806a.339.339 0 0 1-.384-.287.316.316 0 0 1 0-.1V20.2a.339.339 0 0 1 .288-.383.309.309 0 0 1 .1 0h1.355V11.28H151.4c-.256 0-.384-.12-.384-.36zm27.484 8.903h1.1a.339.339 0 0 1 .384.287.343.343 0 0 1 0 .1v1.254a.339.339 0 0 1-.287.384.316.316 0 0 1-.1 0H176.7q-.33 0-.384-.384l-.2-1.5a4.488 4.488 0 0 1-4.17 2.2 4.828 4.828 0 0 1-3.863-1.573 7.365 7.365 0 0 1-1.355-4.887 7.287 7.287 0 0 1 1.573-5.052 5.218 5.218 0 0 1 4.055-1.74 4.512 4.512 0 0 1 2 .423 3.224 3.224 0 0 1 1.279 1.01V4.885h-1.356a.339.339 0 0 1-.379-.285.309.309 0 0 1 0-.1V3.146a.339.339 0 0 1 .287-.384.386.386 0 0 1 .1 0h3.837a.339.339 0 0 1 .384.287.316.316 0 0 1 0 .1zm-2.865-2.788v-4.5a3.038 3.038 0 0 0-1.164-.947 3.6 3.6 0 0 0-1.676-.434q-3.17 0-3.172 4.3 0 3.3 1.433 4.12a3.349 3.349 0 0 0 1.688.358 2.957 2.957 0 0 0 1.983-.793 2.648 2.648 0 0 0 .908-2.103zM193.1 4.04a13.229 13.229 0 0 1 3.786.563.441.441 0 0 1 .358.46V8.6a.339.339 0 0 1-.287.384.316.316 0 0 1-.1 0h-1.432a.317.317 0 0 1-.363-.263.329.329 0 0 1 0-.121l.078-1.714a4.344 4.344 0 0 0-2.277-.614 3.13 3.13 0 0 0-2.009.6 2.02 2.02 0 0 0-.754 1.675 2.346 2.346 0 0 0 .7 1.753 5.611 5.611 0 0 0 1.97 1.163q1.278.488 1.714.666a11.369 11.369 0 0 1 1.265.665 4.692 4.692 0 0 1 1.229.959 5.283 5.283 0 0 1 .742 1.267 4.4 4.4 0 0 1 .345 1.765 5.014 5.014 0 0 1-1.6 3.952 6.617 6.617 0 0 1-4.541 1.42 14.321 14.321 0 0 1-4.3-.665.442.442 0 0 1-.357-.461v-4.07a.339.339 0 0 1 .288-.383.378.378 0 0 1 .095 0h1.433a.315.315 0 0 1 .362.259.305.305 0 0 1 0 .124l-.1 2.124a3.233 3.233 0 0 0 1.112.576 4.925 4.925 0 0 0 1.6.268q3.17 0 3.172-2.584a2.483 2.483 0 0 0-.844-1.982 6.408 6.408 0 0 0-2.187-1.177 16.47 16.47 0 0 1-2.034-.793 8.362 8.362 0 0 1-1.407-.908 3.857 3.857 0 0 1-1.433-3.3A4.864 4.864 0 0 1 188.85 5.5a5.912 5.912 0 0 1 4.25-1.459zm9.794 11.308q0 4.652 3.606 4.652a6.729 6.729 0 0 0 2.686-.691.366.366 0 0 1 .5.136.35.35 0 0 1 .038.094l.46 1.126a.4.4 0 0 1-.194.532l-.012.005a7.487 7.487 0 0 1-3.939.947 5.671 5.671 0 0 1-4.58-1.749 7.128 7.128 0 0 1-1.483-4.758 7.466 7.466 0 0 1 1.521-4.873A5.512 5.512 0 0 1 206.04 8.9a4.3 4.3 0 0 1 3.4 1.254 4.67 4.67 0 0 1 1.1 3.2c0 .222-.145.332-.435.332h-1.535a.377.377 0 0 1-.43-.315.388.388 0 0 1 0-.068 2.075 2.075 0 0 0-2.277-2.252 2.52 2.52 0 0 0-2.251 1.062 5.844 5.844 0 0 0-.718 3.235zm8.67-10.872v-1.33a.339.339 0 0 1 .287-.384.316.316 0 0 1 .1 0h3.863a.339.339 0 0 1 .383.288.309.309 0 0 1 0 .1v7.88a4.532 4.532 0 0 1 3.963-2.129q3.964 0 3.965 4.35v6.575h1.5a.339.339 0 0 1 .384.287.386.386 0 0 1 0 .1v1.254a.339.339 0 0 1-.287.384.316.316 0 0 1-.1 0h-5.6a.339.339 0 0 1-.384-.287.316.316 0 0 1 0-.1V20.2a.339.339 0 0 1 .288-.383.309.309 0 0 1 .1 0h1.228v-5.3a5.119 5.119 0 0 0-.409-2.353 1.761 1.761 0 0 0-1.689-.742 3.036 3.036 0 0 0-2.123.768 2.3 2.3 0 0 0-.845 1.739v5.884h1.56a.339.339 0 0 1 .384.287.386.386 0 0 1 0 .1v1.254a.339.339 0 0 1-.287.384.316.316 0 0 1-.1 0h-5.807a.339.339 0 0 1-.384-.287.316.316 0 0 1 0-.1V20.2a.339.339 0 0 1 .288-.383.309.309 0 0 1 .1 0h1.38V4.86h-1.38a.34.34 0 0 1-.386-.285.329.329 0 0 1-.002-.099zm15.707 11.23a8.594 8.594 0 0 1 .588-3.326 5.019 5.019 0 0 1 1.536-2.123 6.453 6.453 0 0 1 3.939-1.357 6.381 6.381 0 0 1 2.635.487 5.242 5.242 0 0 1 1.676 1.125 5.164 5.164 0 0 1 1.023 1.842 8.508 8.508 0 0 1 .422 2.814 7.178 7.178 0 0 1-1.727 5.206 5.881 5.881 0 0 1-4.413 1.778 5.4 5.4 0 0 1-4.182-1.625 6.889 6.889 0 0 1-1.497-4.821zm5.884 4.35a2.438 2.438 0 0 0 2.239-1.138 6.551 6.551 0 0 0 .7-3.39 6.547 6.547 0 0 0-.7-3.389A2.488 2.488 0 0 0 233.1 11q-2.94 0-2.94 4.145.005 4.9 2.997 4.9zm7.727-4.35a8.575 8.575 0 0 1 .588-3.326 5.008 5.008 0 0 1 1.535-2.123 6.46 6.46 0 0 1 3.939-1.357 6.381 6.381 0 0 1 2.635.487 5.242 5.242 0 0 1 1.676 1.125 5.164 5.164 0 0 1 1.023 1.842 8.482 8.482 0 0 1 .422 2.814 7.185 7.185 0 0 1-1.726 5.206 5.885 5.885 0 0 1-4.413 1.778 5.406 5.406 0 0 1-4.183-1.625 6.9 6.9 0 0 1-1.496-4.821zm5.884 4.35A2.436 2.436 0 0 0 249 18.917a6.551 6.551 0 0 0 .7-3.39 6.545 6.545 0 0 0-.7-3.389A2.49 2.49 0 0 0 246.714 11q-2.942 0-2.942 4.145 0 4.9 2.994 4.9zm12.1-16.9v16.68h1.613a.338.338 0 0 1 .382.287.309.309 0 0 1 0 .1v1.254a.339.339 0 0 1-.287.384.378.378 0 0 1-.095 0h-6.1a.339.339 0 0 1-.384-.287.316.316 0 0 1 0-.1V20.2a.339.339 0 0 1 .288-.383.309.309 0 0 1 .1 0H256V4.86h-1.38a.339.339 0 0 1-.384-.287.316.316 0 0 1 0-.1V3.146a.339.339 0 0 1 .287-.384.316.316 0 0 1 .1 0h3.862a.339.339 0 0 1 .384.287.316.316 0 0 1-.003.097zM81.308 46.4a8.589 8.589 0 0 1 .588-3.325 5.017 5.017 0 0 1 1.535-2.123 6.455 6.455 0 0 1 3.94-1.356 6.375 6.375 0 0 1 2.634.486 4.409 4.409 0 0 1 2.7 2.968 8.5 8.5 0 0 1 .421 2.813 7.182 7.182 0 0 1-1.726 5.209 5.881 5.881 0 0 1-4.413 1.778 5.4 5.4 0 0 1-4.182-1.624 6.892 6.892 0 0 1-1.497-4.826zm5.883 4.35a2.438 2.438 0 0 0 2.239-1.138 6.545 6.545 0 0 0 .7-3.389 6.551 6.551 0 0 0-.7-3.39 2.485 2.485 0 0 0-2.289-1.132q-2.943 0-2.942 4.145 0 4.907 2.992 4.907zm12.18-8.798v8.57h2.7a.339.339 0 0 1 .384.287.316.316 0 0 1 0 .1v1.253a.339.339 0 0 1-.287.384.316.316 0 0 1-.1 0h-7.16a.339.339 0 0 1-.383-.288.309.309 0 0 1 0-.1v-1.252a.339.339 0 0 1 .287-.384.386.386 0 0 1 .1 0h1.58v-8.57H94.9a.339.339 0 0 1-.383-.288.309.309 0 0 1 0-.1v-1.3a.339.339 0 0 1 .287-.384.386.386 0 0 1 .1 0h1.58V37.4q0-3.068 1.92-3.913a5.377 5.377 0 0 1 2.174-.358 6.86 6.86 0 0 1 2.814.64q.23.1.23.255a.774.774 0 0 1-.026.23l-.384 1.28a.294.294 0 0 1-.358.212.306.306 0 0 1-.077-.032 4.73 4.73 0 0 0-1.944-.461 1.186 1.186 0 0 0-1.2.6 5.677 5.677 0 0 0-.281 2.161v1.867h3.095a.339.339 0 0 1 .384.287.316.316 0 0 1 0 .1v1.3a.339.339 0 0 1-.287.384.316.316 0 0 1-.1 0z"/><path d="M111.084 53.515v-16.27h-1.355a.339.339 0 0 1-.384-.287.316.316 0 0 1 0-.1v-1.3a.339.339 0 0 1 .287-.384.316.316 0 0 1 .1 0h5.576a.339.339 0 0 1 .384.287.316.316 0 0 1 0 .1v1.3a.339.339 0 0 1-.287.384.316.316 0 0 1-.1 0h-1.356v16.372q0 5.066-4.68 5.066a6.733 6.733 0 0 1-2.891-.537c-.12-.052-.18-.125-.18-.218a.689.689 0 0 1 .052-.269l.46-1.33c.085-.256.24-.342.46-.256a5.206 5.206 0 0 0 1.881.332 1.8 1.8 0 0 0 1.522-.665 3.723 3.723 0 0 0 .511-2.225zm13.25-8.57v-.9q0-1.816-1.023-2.277a3.78 3.78 0 0 0-1.407-.2 1.922 1.922 0 0 0-2.1 1.638q-.077.384-.384.384h-1.637q-.4 0-.358-.384a3.2 3.2 0 0 1 1.51-2.737 6.706 6.706 0 0 1 3.581-.87q4.578 0 4.58 4.2v6.728h1.1a.339.339 0 0 1 .384.287.316.316 0 0 1 0 .1v1.253a.339.339 0 0 1-.287.384.316.316 0 0 1-.1 0h-3.02q-.332 0-.384-.384L124.6 51a4.659 4.659 0 0 1-3.991 1.868 4.214 4.214 0 0 1-2.711-.857 3.31 3.31 0 0 1-1.074-2.75 3.392 3.392 0 0 1 2.072-3.4 10.485 10.485 0 0 1 4.093-.87q.5-.01 1.335-.036zm.05 3.736V46.7a11.164 11.164 0 0 0-3.018.23q-.564.23-1 .46a1.635 1.635 0 0 0-.819 1.586q0 1.765 2.02 1.765a3.119 3.119 0 0 0 2.073-.626 1.854 1.854 0 0 0 .743-1.445zm7.24 7.724V41.978h-1.38a.339.339 0 0 1-.384-.287.316.316 0 0 1 0-.1v-1.33a.339.339 0 0 1 .287-.384.316.316 0 0 1 .1 0h3.48q.307 0 .384.384l.256 1.535a4.348 4.348 0 0 1 4.016-2.2 4.6 4.6 0 0 1 3.683 1.547 6.838 6.838 0 0 1 1.331 4.567q0 3.657-1.56 5.4a5.149 5.149 0 0 1-4.017 1.74 5.052 5.052 0 0 1-3.325-1.075v4.6h2.706a.339.339 0 0 1 .384.287.316.316 0 0 1 0 .1v1.28a.339.339 0 0 1-.287.384.316.316 0 0 1-.1 0h-6.93a.339.339 0 0 1-.384-.287.316.316 0 0 1 0-.1v-1.25a.339.339 0 0 1 .287-.384.316.316 0 0 1 .1 0zm2.866-11.638v4.885a3.664 3.664 0 0 0 1.253.743 4.537 4.537 0 0 0 1.663.332 2.755 2.755 0 0 0 2.289-1.011 5.563 5.563 0 0 0 .8-3.416q0-3.275-1.433-4.016a3.573 3.573 0 0 0-1.688-.333 3.037 3.037 0 0 0-1.983.755 2.533 2.533 0 0 0-.901 2.061zm18.2.178v-.9q0-1.816-1.024-2.277a3.775 3.775 0 0 0-1.406-.2 1.921 1.921 0 0 0-2.1 1.638q-.076.384-.384.384h-1.635c-.273 0-.393-.128-.358-.384a3.206 3.206 0 0 1 1.509-2.737 6.706 6.706 0 0 1 3.581-.87q4.58 0 4.58 4.2v6.728h1.1a.339.339 0 0 1 .383.288.309.309 0 0 1 0 .1v1.253a.339.339 0 0 1-.287.384.386.386 0 0 1-.1 0h-3.02c-.22 0-.35-.128-.382-.384l-.18-1.177a4.659 4.659 0 0 1-3.991 1.868 4.214 4.214 0 0 1-2.711-.857 3.31 3.31 0 0 1-1.074-2.75 3.392 3.392 0 0 1 2.071-3.4 10.49 10.49 0 0 1 4.094-.87q.5-.01 1.335-.037zm.05 3.736V46.7a11.2 11.2 0 0 0-3.018.23q-.562.23-1 .46a1.631 1.631 0 0 0-.819 1.586q0 1.765 2.02 1.765a3.113 3.113 0 0 0 2.072-.626 1.855 1.855 0 0 0 .744-1.445zm5.592-7.06v-1.356a.339.339 0 0 1 .287-.384.316.316 0 0 1 .1 0h3.478q.333 0 .4.384l.23 1.484a4.629 4.629 0 0 1 4.093-2.149q3.965 0 3.966 4.348v6.575h1.483a.339.339 0 0 1 .384.287.316.316 0 0 1 0 .1v1.253a.339.339 0 0 1-.287.384.316.316 0 0 1-.1 0H166.8a.339.339 0 0 1-.384-.287.316.316 0 0 1 0-.1v-1.253a.339.339 0 0 1 .287-.384.316.316 0 0 1 .1 0h1.227v-5.3a5.1 5.1 0 0 0-.409-2.354 1.756 1.756 0 0 0-1.688-.741 3.034 3.034 0 0 0-2.123.766 2.3 2.3 0 0 0-.845 1.741v5.883h1.586a.339.339 0 0 1 .384.287.316.316 0 0 1 0 .1v1.253a.339.339 0 0 1-.287.384.316.316 0 0 1-.1 0h-5.807a.339.339 0 0 1-.384-.287.316.316 0 0 1 0-.1v-1.248a.339.339 0 0 1 .287-.384.316.316 0 0 1 .1 0h1.356V41.98h-1.38c-.26 0-.387-.12-.387-.358zm21.6 11.23a5.366 5.366 0 0 1-4.464-1.778 7.315 7.315 0 0 1-1.42-4.707 7.6 7.6 0 0 1 1.509-4.847 5.871 5.871 0 0 1 6.766-1.4 3.785 3.785 0 0 1 1.548 1.42 7.786 7.786 0 0 1 1.024 4.017 3.153 3.153 0 0 1-.1 1.176.543.543 0 0 1-.384.1h-7.52a5.191 5.191 0 0 0 .907 2.852 3.213 3.213 0 0 0 2.7 1.011 7.052 7.052 0 0 0 2.891-.665.33.33 0 0 1 .459.078.324.324 0 0 1 .053.122l.486 1.177c.085.2.01.375-.23.512a8.731 8.731 0 0 1-4.225.932zm-3.044-7.905h5.32q.05-3.2-2.507-3.2a2.354 2.354 0 0 0-2.135.959 4.316 4.316 0 0 0-.678 2.241zm11.256-4.22a4.879 4.879 0 0 1 3.3-1.126 11.489 11.489 0 0 1 3.453.461.441.441 0 0 1 .358.46v2.7a.339.339 0 0 1-.287.384.316.316 0 0 1-.1 0h-1.483c-.274 0-.384-.128-.333-.384l.128-1.3a3.525 3.525 0 0 0-1.689-.409q-2.046 0-2.046 1.432a1.343 1.343 0 0 0 .666 1.177 5.861 5.861 0 0 0 1.611.7q.946.268 1.906.614a3.631 3.631 0 0 1 1.624 1.177 3.273 3.273 0 0 1 .665 2.11 3.673 3.673 0 0 1-1.355 3.032 5.952 5.952 0 0 1-3.812 1.087 13.787 13.787 0 0 1-3.607-.512.452.452 0 0 1-.332-.485V49.14a.339.339 0 0 1 .287-.384.316.316 0 0 1 .1 0h1.483a.317.317 0 0 1 .358.384l-.077 1.33a3.265 3.265 0 0 0 1.97.511q2.275 0 2.277-1.6a1.515 1.515 0 0 0-.652-1.292 4.9 4.9 0 0 0-1.587-.729q-.933-.255-1.88-.576a3.431 3.431 0 0 1-1.6-1.126 3.254 3.254 0 0 1-.652-2.11 3.563 3.563 0 0 1 1.306-2.813zm15.323 12.125a5.366 5.366 0 0 1-4.464-1.778 7.315 7.315 0 0 1-1.42-4.707 7.6 7.6 0 0 1 1.509-4.847 5.873 5.873 0 0 1 6.767-1.4 3.8 3.8 0 0 1 1.547 1.42 7.786 7.786 0 0 1 1.024 4.017 3.153 3.153 0 0 1-.1 1.176.539.539 0 0 1-.383.1h-7.52a5.191 5.191 0 0 0 .907 2.852 3.216 3.216 0 0 0 2.7 1.011 7.044 7.044 0 0 0 2.89-.665.33.33 0 0 1 .459.078.324.324 0 0 1 .053.122l.486 1.177c.085.2.01.375-.23.512a8.739 8.739 0 0 1-4.224.932zm-3.044-7.905h5.32q.053-3.2-2.506-3.2a2.354 2.354 0 0 0-2.136.959 4.316 4.316 0 0 0-.678 2.241zm14.977-1a11.824 11.824 0 0 1 .73-4.323 7.1 7.1 0 0 1 1.931-2.891 8.028 8.028 0 0 1 5.333-1.995 10.96 10.96 0 0 1 5.36 1.3.556.556 0 0 1 .333.512v3.3a.339.339 0 0 1-.287.384.316.316 0 0 1-.1 0h-1.43a.317.317 0 0 1-.358-.384l.077-1.8a6.285 6.285 0 0 0-3.607-1.074q-4.913 0-4.9 6.55a11.777 11.777 0 0 0 .486 3.569 5.2 5.2 0 0 0 1.714 2.52 5.033 5.033 0 0 0 3.274 1 4.847 4.847 0 0 0 3.07-.818l-.1-1.8a.315.315 0 0 1 .234-.379.324.324 0 0 1 .124 0h1.458a.339.339 0 0 1 .384.287.386.386 0 0 1 0 .1v3.25a.493.493 0 0 1-.256.486 11.572 11.572 0 0 1-5.141 1.1q-4.2 0-6.255-2.38a9.641 9.641 0 0 1-2.063-6.531zm28.04 6.575h1.125a.339.339 0 0 1 .384.287.316.316 0 0 1 0 .1v1.253a.339.339 0 0 1-.287.384.316.316 0 0 1-.1 0H241.7q-.306 0-.384-.384l-.23-1.432a5.17 5.17 0 0 1-4.3 2.123q-4.145 0-4.144-4.35v-6.526H231.3a.339.339 0 0 1-.384-.287.316.316 0 0 1 0-.1v-1.33a.339.339 0 0 1 .287-.384.316.316 0 0 1 .1 0h3.837a.339.339 0 0 1 .384.287.316.316 0 0 1 0 .1v7.47a4.445 4.445 0 0 0 .4 2.188 1.836 1.836 0 0 0 1.689.652 3.055 3.055 0 0 0 2.135-.767 2.3 2.3 0 0 0 .845-1.74v-6.088h-1.612a.339.339 0 0 1-.384-.287.316.316 0 0 1 0-.1v-1.33a.339.339 0 0 1 .287-.384.316.316 0 0 1 .1 0h4.094a.339.339 0 0 1 .383.288.309.309 0 0 1 0 .1zm7.546 0h1.614a.338.338 0 0 1 .382.287.316.316 0 0 1 0 .1v1.253a.338.338 0 0 1-.285.384.35.35 0 0 1-.1 0h-6.1a.339.339 0 0 1-.384-.287.316.316 0 0 1 0-.1v-1.253a.339.339 0 0 1 .287-.384.316.316 0 0 1 .1 0h1.6v-8.544h-1.38a.339.339 0 0 1-.384-.287.316.316 0 0 1 0-.1v-1.33a.339.339 0 0 1 .287-.384.316.316 0 0 1 .1 0h3.86a.339.339 0 0 1 .383.288.309.309 0 0 1 0 .1zm-3.094-12.92a1.817 1.817 0 0 1-.487-1.3 1.839 1.839 0 0 1 .5-1.318 1.949 1.949 0 0 1 2.66 0 1.839 1.839 0 0 1 .5 1.318 1.768 1.768 0 0 1-.511 1.3 1.822 1.822 0 0 1-1.343.511 1.734 1.734 0 0 1-1.319-.511zm8.084 3.125a4.868 4.868 0 0 1 3.3-1.126 11.5 11.5 0 0 1 3.454.461.441.441 0 0 1 .358.46v2.7a.339.339 0 0 1-.287.384.316.316 0 0 1-.1 0h-1.48c-.274 0-.384-.128-.333-.384l.128-1.3a3.536 3.536 0 0 0-1.689-.409q-2.046 0-2.046 1.432a1.345 1.345 0 0 0 .665 1.177 5.867 5.867 0 0 0 1.612.7q.946.268 1.906.614a3.631 3.631 0 0 1 1.624 1.177 3.273 3.273 0 0 1 .665 2.11 3.668 3.668 0 0 1-1.356 3.032 5.95 5.95 0 0 1-3.811 1.087 13.746 13.746 0 0 1-3.607-.512.452.452 0 0 1-.332-.485V49.14a.339.339 0 0 1 .287-.384.385.385 0 0 1 .1 0h1.484a.317.317 0 0 1 .358.384l-.077 1.33a3.265 3.265 0 0 0 1.97.511q2.275 0 2.277-1.6a1.515 1.515 0 0 0-.652-1.292 4.9 4.9 0 0 0-1.587-.729q-.933-.255-1.88-.576a3.431 3.431 0 0 1-1.6-1.126 3.254 3.254 0 0 1-.652-2.11 3.56 3.56 0 0 1 1.302-2.813zm13.824 9.797h1.6a.339.339 0 0 1 .383.288.309.309 0 0 1 0 .1v1.253a.339.339 0 0 1-.287.384.386.386 0 0 1-.1 0h-6.1a.339.339 0 0 1-.383-.288.309.309 0 0 1 0-.1v-1.253a.339.339 0 0 1 .287-.384.385.385 0 0 1 .1 0h1.612v-8.544h-1.38a.339.339 0 0 1-.384-.287.316.316 0 0 1 0-.1v-1.33a.339.339 0 0 1 .287-.384.316.316 0 0 1 .1 0h3.855a.339.339 0 0 1 .384.287.316.316 0 0 1 0 .1zM266.694 37.6a1.817 1.817 0 0 1-.486-1.3 1.839 1.839 0 0 1 .5-1.318 1.949 1.949 0 0 1 2.66 0 1.839 1.839 0 0 1 .5 1.318 1.769 1.769 0 0 1-.512 1.3 1.82 1.82 0 0 1-1.342.511 1.735 1.735 0 0 1-1.32-.511zm5.986 4.02v-1.356a.339.339 0 0 1 .287-.384.385.385 0 0 1 .1 0h3.48q.333 0 .4.384l.23 1.484a4.627 4.627 0 0 1 4.092-2.149q3.966 0 3.966 4.348v6.575h1.484a.339.339 0 0 1 .383.288.309.309 0 0 1 0 .1v1.253a.339.339 0 0 1-.287.384.386.386 0 0 1-.1 0h-5.577a.339.339 0 0 1-.383-.288.309.309 0 0 1 0-.1v-1.253a.339.339 0 0 1 .287-.384.385.385 0 0 1 .1 0h1.228v-5.3a5.123 5.123 0 0 0-.409-2.354 1.758 1.758 0 0 0-1.689-.741 3.039 3.039 0 0 0-2.123.766 2.3 2.3 0 0 0-.844 1.741v5.883h1.6a.339.339 0 0 1 .383.288.309.309 0 0 1 0 .1v1.253a.339.339 0 0 1-.287.384.386.386 0 0 1-.1 0h-5.807a.339.339 0 0 1-.384-.287.316.316 0 0 1 0-.1v-1.25a.339.339 0 0 1 .287-.384.316.316 0 0 1 .1 0h1.355v-8.544h-1.38c-.262 0-.4-.12-.4-.358zm21.6 11.23a5.366 5.366 0 0 1-4.464-1.778 7.315 7.315 0 0 1-1.42-4.707 7.6 7.6 0 0 1 1.509-4.847 5.871 5.871 0 0 1 6.766-1.4 3.792 3.792 0 0 1 1.548 1.42 7.776 7.776 0 0 1 1.023 4.017 3.2 3.2 0 0 1-.1 1.176.543.543 0 0 1-.384.1h-7.52a5.183 5.183 0 0 0 .907 2.852 3.21 3.21 0 0 0 2.7 1.011 7.052 7.052 0 0 0 2.891-.665.328.328 0 0 1 .511.2l.487 1.177c.085.2.008.375-.23.512a8.732 8.732 0 0 1-4.223.932zm-3.044-7.905h5.32q.05-3.2-2.507-3.2a2.354 2.354 0 0 0-2.136.959 4.314 4.314 0 0 0-.677 2.241zM40.862 18.134a19.859 19.859 0 0 1-2.363 15.1h7.435c6.382-7.417 5.406-16.634 4.8-19.934a17.812 17.812 0 0 0-1.828-.094H38.888a20.1 20.1 0 0 1 1.974 4.928zM54.2 19.6a25.651 25.651 0 0 1-4.462 13.7 6.1 6.1 0 0 1 4.149 2.54 14.6 14.6 0 0 0 8.75-8.985 17 17 0 0 0 .909-5.816 17.716 17.716 0 0 0-9.628-7.1A30.832 30.832 0 0 1 54.2 19.6zm-16.26-.592a16.734 16.734 0 0 0-2.671-5.8H20.03a2.449 2.449 0 1 1 0-4.9h23.45V5.263H20.03a5.5 5.5 0 0 0-1.4 10.81q.04.912.14 1.784h-4.235V20.9h4.77a18.733 18.733 0 0 0 1.11 3.211 15.467 15.467 0 0 0 4.284 5.628 16.108 16.108 0 0 0 7.9 3.445l.474.05H34.9c3.186-4.667 4.208-9.45 3.04-14.226zm-4.82 2.344h-3.047v-3.047h3.047zm32.398 6.5a17.725 17.725 0 0 1-10.556 10.844 6.1 6.1 0 0 1-3.829 6.327 6.865 6.865 0 0 0-6.759-5.714H36.96v2.33a6.845 6.845 0 0 0 2.555 5.334A6.845 6.845 0 0 0 36.96 52.3v2.33h7.413a6.867 6.867 0 0 0 6.819-6.139h.038v-.156a17.643 17.643 0 0 0 14.727-21.963l-.44 1.472z"/></svg>