<svg xmlns="http://www.w3.org/2000/svg" viewBox="0 0 300 46" fill="#fff"><path d="M96.954 1a12.719 12.719 0 0 0-10.506 5.585A10.764 10.764 0 0 0 77.029.99c-5.622 0-9.7 5.253-9.7 5.253V1.76H60v31.413h7.327v-17.8c0-3.406 1.742-7.856 6.8-7.856 3.846 0 6.28 2.672 6.28 7.856v17.8h7.33V15.9c0-4.77 2.113-8.375 6.808-8.375 4.53 0 6.28 3.267 6.28 8.375v17.276h7.33v-19.37c0-7.095-2.9-12.813-11.17-12.813zm34.616.77L125 23.394 117.148 1.76H109.2l12.635 31.246-4.1 12.7h7.4L139.323 1.73zm15.57 8.35c0-1.73 1.1-3.007 4.033-3.007a15.505 15.505 0 0 1 8.49 3.059l3.3-5.75A21.841 21.841 0 0 0 151.538.924c-6.738 0-11.438 4.528-11.438 9.464 0 11.63 16.474 7.85 16.474 14.19 0 2.437-2.222 3.02-4.407 3.02-4.825 0-9.833-3.816-9.833-3.816l-3.176 6.03a23.915 23.915 0 0 0 12.825 4c6.56 0 11.75-3.632 11.75-9.945 0-10.488-16.592-8.586-16.592-13.69zM185.233.984c-6.944 0-10.6 5.724-10.6 5.724V1.77h-7.336V45.74h7.336V28.285s3.713 5.56 10.4 5.56 14.905-4.882 14.905-16.29c0-7.523-4.468-16.6-14.7-16.6zm-1.69 26.616c-5.434 0-9.253-4.715-9.253-10.174 0-5 3.586-10.19 9.063-10.19 5.555 0 9.138 4.83 9.138 10.253s-3.52 10.1-8.948 10.1zm45-20.855s-3.7-5.724-10.608-5.724c-10.23 0-14.7 9.048-14.7 16.605 0 11.405 8.233 16.3 14.908 16.3s10.4-5.56 10.4-5.56v4.89h7.33V1.77h-7.332V6.74zm-8.915 20.892c-5.434 0-8.95-4.656-8.95-10.114 0-5.425 3.623-10.253 9.138-10.253 5.474 0 9.063 5.193 9.063 10.2 0 5.434-3.822 10.174-9.25 10.174zm36.388-.043c-6.038 0-9.42-5.15-9.42-10.18 0-5.627 4.453-10.113 9.247-10.113a10.04 10.04 0 0 1 7.991 4.166l4.766-4.925A16.743 16.743 0 0 0 255.965.987c-10.944 0-16.53 8.634-16.53 16.59 0 9.528 7.418 16.3 16.493 16.3a18.226 18.226 0 0 0 12.824-5.724l-4.528-4.468a10.629 10.629 0 0 1-8.212 3.873zM300 17.084c0-8.827-5.615-16.13-15.1-16.13-9.612 0-15.542 7.783-15.542 16.6 0 8.315 5.507 16.29 16.424 16.29 7.17 0 10.25-2.983 12.92-5.594l-4.423-4.218c-.655.613-3.614 4.024-8.3 4.024-5.413 0-9.256-4.244-9.256-7.93H300v-3.042zm-23.292-1.7c0-3.086 2.7-8.442 8.152-8.442 5.265 0 8.1 5.193 8.1 8.442h-16.252z"/><circle cx="7.83" cy="13.576" r="7.055"/><circle cx="25.531" cy="11.508" r="7.892"/><ellipse cx="45.085" cy="8.984" rx="8.655" ry="8.725"/><path d="M7.755 21.65C3.112 21.65 0 25.833 0 29.634v2.6a.876.876 0 0 0 .815.932.793.793 0 0 0 .109 0h13.66a.865.865 0 0 0 .924-.9v-2.6a7.9 7.9 0 0 0-7.75-7.985zm17.77-1.05a8.594 8.594 0 0 0-8.441 8.743v2.908a.861.861 0 0 0 .911.914H33.15a.867.867 0 0 0 .917-.914v-2.9a8.655 8.655 0 0 0-8.543-8.741zM45.2 19.1a9.592 9.592 0 0 0-9.5 9.67v3.466a.869.869 0 0 0 .917.929H53.74a.868.868 0 0 0 .918-.929v-3.468a9.547 9.547 0 0 0-9.434-9.67z"/></svg>