<svg xmlns="http://www.w3.org/2000/svg" viewBox="0 0 300 147"><path d="M30.418 66.6l-16.988.005-.003-23.3 23.6-.008-.004-11.688-23.588.008v-.01l-11.688.002.008 83.765h11.7l-.004-37.08 17-.005-.004-11.7zm66.784 48.775l-.004-11.7-22.028.01-.007-72.077-11.7.002.01 83.764 33.72-.01zm111.734.01a19.047 19.047 0 0 1-14.824-7.336l-.3-.388c-3.732-5.408-4.164-11.574-4.164-15.74V55.08c0-4.167.432-10.332 4.164-15.74l.293-.388a19.29 19.29 0 0 1 14.818-7.335 19.036 19.036 0 0 1 14.822 7.335l.293.388c3.732 5.408 4.164 11.573 4.164 15.74v36.84c0 4.166-.432 10.332-4.164 15.74l-.3.388a19.3 19.3 0 0 1-14.82 7.336zm-5.63-14.563a6.944 6.944 0 0 0 11.254 0c1.355-2.077 1.962-4.838 1.962-8.9V55.08c0-4.062-.607-6.823-1.962-8.9a6.946 6.946 0 0 0-11.254 0c-1.355 2.078-1.962 4.84-1.962 8.9v36.84c0 4.063.607 6.824 1.962 8.9zm-61.894 14.563a19.089 19.089 0 0 1-14.666-7.256l-.292-.386c-3.7-5.355-4.118-11.453-4.118-15.573V31.62H133.9v60.55c0 4.018.6 6.75 1.94 8.8a6.877 6.877 0 0 0 11.138 0c1.34-2.06 1.942-4.793 1.942-8.8V31.62h11.564v60.55c0 4.12-.427 10.218-4.118 15.573l-.292.386a19.09 19.09 0 0 1-14.662 7.256zm144.888-.001l11.96-.128-8.54-36.6a26.621 26.621 0 0 0 3.971-3.927 10.823 10.823 0 0 0 2.754-6.807V45.356a9.786 9.786 0 0 0-2.756-6.809 21.566 21.566 0 0 0-12-6.671l-.013-.14-1.625-.015-.862-.056v.048l-10.2-.093h-11.376l.007 83.765h11.7V83h9.426zm-17-72.08h11.287a7.376 7.376 0 0 1 1.725.866 5.574 5.574 0 0 1 2.442 4.227v18.44a.823.823 0 0 1-.142.508 9.429 9.429 0 0 1-3.484 3.956h-11.822z" fill="#fff"/><path fill="none" stroke="#fff" stroke-miterlimit="10" stroke-width="3" d="M0 130.654h300"/></svg>