<svg xmlns="http://www.w3.org/2000/svg" viewBox="0 0 300 150" fill="#fff"><path d="M120.1 127.66a3.132 3.132 0 0 0-3.013-1.83 3.032 3.032 0 0 0-3.135 2.855c0 1.567 1.44 2.4 2.6 2.866l1.342.567c2.67 1.1 4.66 2.684 4.66 6.1a5.99 5.99 0 0 1-6 6.264c-3.03 0-5.4-2.4-5.794-5.624l2.366-.53a3.56 3.56 0 1 0 7.093-.11c0-2.16-1.616-3.086-3.232-3.806l-1.293-.585c-2.134-.976-4.086-2.287-4.086-5.08a5.262 5.262 0 0 1 5.531-5.2 5.318 5.318 0 0 1 4.831 3.038l-1.867 1.195zm10.08 16.266h-2.342V126.14h-4.452v-2.293h11.252v2.293h-4.452v17.785zm8.32-20.126v11.843c0 3.282.915 6.313 4.53 6.313s4.53-3.03 4.53-6.313V123.8h2.342v12.7c0 4.422-2.56 7.807-6.873 7.807s-6.874-3.385-6.874-7.807v-12.7h2.343zm16.8 17.778h.823c4.776 0 8.905-1.915 8.905-7.746s-4.135-7.745-8.905-7.745h-.823zm-2.342-17.785h3.885c5.757 0 10.533 3.245 10.533 9.93 0 6.843-4.684 10.143-10.612 10.143h-3.806v-20.072zm19.028 20.078h-2.34v-20.078h2.34zm19.517-9.978c0-4.422-3.086-8.124-7.5-8.124s-7.5 3.7-7.5 8.124c0 4.574 3.433 8.124 7.5 8.124s7.5-3.538 7.5-8.124m2.34 0c0 5.965-4.4 10.46-9.837 10.46s-9.83-4.5-9.83-10.46c0-5.75 4.452-10.46 9.83-10.46s9.837 4.708 9.837 10.46m26.573-.08v.793c0 5.513-3.635 9.746-8.886 9.746s-9.5-4.85-9.5-10.4c0-5.776 4.27-10.52 9.734-10.52a9.58 9.58 0 0 1 7.648 3.891L217.766 129a7.374 7.374 0 0 0-5.9-3.275c-4.27 0-7.5 3.647-7.5 8.14 0 4.27 3.232 8.2 7.294 8.2a6.473 6.473 0 0 0 6.148-5.964h-4.855v-2.287h7.44zm13.4-1.86v-8.093h2.342v20.126h-2.34v-9.637h-8.935v9.637h-2.342V123.86h2.342v8.093zm8 11.978h-2.337v-20.078h2.342zm5.647-2.24h1.793c2.165 0 4.428-.7 4.428-3.537s-2.683-3.415-4.775-3.415h-1.446v6.952zm0-8.94h.6c2.22 0 4.025-.488 4.025-3.355 0-2.824-1.793-3.293-3.982-3.293h-.647v6.7zm-2.342-8.9h2.294c3.537 0 6.867.976 6.867 5.514a4.375 4.375 0 0 1-2.013 3.805v.05a5.11 5.11 0 0 1 3.763 5.086c0 4.026-3.208 5.624-6.526 5.624h-4.4v-20.083zm15.87 17.8h5.7v2.287h-8.05V123.8h2.342v17.8zm9.5 2.293h-2.34V123.85h2.34zm-185.565-33.46C90.7 108.217 97.154 102.04 100 93.7H86.414v-3.047h17.565a31.52 31.52 0 0 1-5.02 11.587l8.844 8.3-2.464 2.66a77.94 77.94 0 0 0-8.148-8.551c-1.83 2.232-5.46 6.264-10.448 8.435l-1.8-2.623zM116.853 99a22.272 22.272 0 0 1 6.063 3.964 18.126 18.126 0 0 0 3.134-7.288h-9.15a21.752 21.752 0 0 1-6.873 6.757l-1.952-2.348c4.574-2.543 6.953-5.916 8.746-10.978l3.17.64-1.384 2.97h11.13c-.683 4.38-2.927 17.2-18.34 21.04l-1.67-2.77a20.2 20.2 0 0 0 11.1-5.7 25.038 25.038 0 0 0-6.014-4.19l2.044-2.153zm14.87 10.563c9.85-.866 14.32-4.056 17.7-15.2l2.83 1.34c-3.556 10.588-7.972 15.784-19.8 17.2zm19.62-16.735a23.218 23.218 0 0 0-1.36-4.27l2.122-.506a28.438 28.438 0 0 1 1.4 4.135l-2.172.647zm-3.812.585a26.888 26.888 0 0 0-1.232-4.5l2.147-.5a23.309 23.309 0 0 1 1.329 4.44zm-9.953 9.252a35.6 35.6 0 0 0-7.343-3.245l1.195-2.9a38.1 38.1 0 0 1 7.349 3.05l-1.2 3.16zm2.012-6.483a40.363 40.363 0 0 0-7.294-3.049l1.257-2.928a47.734 47.734 0 0 1 7.367 2.928zm40.033 13.38c9.85-.866 14.32-4.056 17.7-15.2l2.83 1.34c-3.556 10.588-7.972 15.784-19.8 17.2zm19.62-16.735a23.218 23.218 0 0 0-1.36-4.27L200 88.05a28.438 28.438 0 0 1 1.4 4.135l-2.172.647zm-3.812.585a26.888 26.888 0 0 0-1.232-4.5l2.147-.5a23.309 23.309 0 0 1 1.329 4.44zm-9.953 9.252a35.6 35.6 0 0 0-7.343-3.245l1.2-2.9a38.1 38.1 0 0 1 7.349 3.05l-1.2 3.16zm2.012-6.483a40.186 40.186 0 0 0-7.294-3.049l1.257-2.928a47.469 47.469 0 0 1 7.367 2.928zm36.397-4.114a22.622 22.622 0 0 0-1.122-4.055l2.135-.412a25.272 25.272 0 0 1 1.1 3.94l-2.116.53zm-2.744-4.25a20.441 20.441 0 0 1 1.1 3.891l-.793.1v.06h1.568c-.44 12.155-6.1 19.053-15.96 21.3l-1.646-2.988c4.27-.866 12.856-2.714 14.27-15.284h-16.54v-3.02h16.747a17.8 17.8 0 0 0-.988-3.66l2.245-.4zm23.78 12.63c0 4.4-.757 7.825-3.794 10.283-2.44 1.933-4.806 2.427-10.08 3.05l-.964-3.074c6.7-.445 11.758-1.56 11.758-8.77v-12.1h3.08v10.612zm-13.192 5.062h-3.025V90.335h3.025zm30.018-17.076a22.425 22.425 0 0 1-1.073 3.549h11.264v2.763h-8.678v3.964h8.025v2.763h-8.025v4h8.025v2.744h-8.025v6.264h-2.818V94.745h-.994a26.953 26.953 0 0 1-3.965 5.977l-1.78-2.44a22.86 22.86 0 0 0 5.153-10.246l2.9.336zM250.5 99.807h-.06a16.906 16.906 0 0 1-2.3 2.6l-1.2-2.763c2.9-2.9 4.647-6.1 5.794-11.588l2.768.507a37.3 37.3 0 0 1-2.256 6.428v19.425h-2.763V99.74zm28.9-3.415h12.807v-4.758H279.38v4.758zm-2.58-7.32h17.87v10h-17.9zm12.216 21.468h5.562v-6.624h-5.562v6.624zm-14.7-9.2h10.16v12.94h-2.44v-1.146h-5.16v1.342h-2.44v-13.14zm2.44 9.2h5.184v-6.624h-5.184v6.624zm9.758-9.2h10.612v13.137h-2.44v-1.342H289.1v1.342h-2.525v-13.14zm-131.77 7.47C162.63 103.082 165.3 97.886 165.7 97l-11.118-.012v-3.073H167.5v-4.677h2.9v4.677h5.916v3.153h-5.9l.006 16.37h-2.94V99.52s-2.36 5.7-11.07 11.954l-1.708-2.653zm-70.66 9.575h214.8"/><path d="M84.072 118.22h214.8v.354h-214.8m2.36-72.832v.287l-.464.158-1.268-.03-1.27.06-.06-.122.586-.366c.854.158 1.586-.262 2.36-.05l.122.073zM55.92 74.04l-.22.263-.415.6-.292.335-.878.707-.9.592a4.628 4.628 0 0 1-2.341 1.073l-1.147.122a5.379 5.379 0 0 1-1.921-.366l-.586-.183a2.285 2.285 0 0 1-1.366-1.536l-.024-.208h-.05l-.05-.652-.073-.183-.122-1.427v-.214h.024l.025-1.037.09-.207.1-.207h.05l.025-.336h.018l.08-.268v-.958l.1-.183.042-.244.062-.414h.048l.025-.244h.024l.074-.232v-.16h.05l.048-.28h.043l.445-.836.27-.34a3.911 3.911 0 0 1 2.012-.939l1.074-.366a12.9 12.9 0 0 1 1.708.292l1.22.592.73.793h.05l.06.158h.043l.22.415a12.013 12.013 0 0 1 1.561 5.215l.024.23h.05v.6zm1.847.05l-.652-.366-.2-.158-.146-.134-.1-.415h-.06l-.06-1.147h-.018l-.048-.3-.08-.475-.09-.757h-.05l-.073-.366h-.025l-.1-.305-.1-.365-.2-.574h-.05l-.122-.305c-.915-2.256-1.433-2.744-3.78-3.33l-.732-.244a6.2 6.2 0 0 0-2.336.263c-.56-.06-.854.256-1.244.463l-.95.6-.275.427-.06.207-.292.39-.146.183-.074.286h-.03l-.122.232V68l-.074.262h-.024l-.074.39h-.048v.122l-.05.47h-.05l-.05.6h-.048l-.074.336h-.024l-.074.44h-.024l-.025.317h-.05v.262h-.048l.048.44-.488.81h-.024l.024.263.025.073.463.6h-.048v.182l-.016.634.073.4.074.415.024.122h.05l.025.244.1.305.1.207.4.58.824.774.78.628a4.869 4.869 0 0 0 2.537.47c.56-.08 1.27-.06 1.635-.427l.683-.122.537-.152 1.14-.6.8-.6c.56-.305.83-.823 1.293-1.2l.44-.6.17-.153 1-.122.286-.4m-22.04-7.047l.073.024h-.024v.05h-.025l-.17.652h-.048l-.074.4h-.024l-.074.488h-.024l-.05.292-.073.446h-.05v.23h-.05l-.17.342-.292-.183-.02-.207h.043l.05-.732h.05l.073-.336h.025l.024-.293h.05l.05-.384h.05l.17-.6.1-.158v-.1l.05-.05.22-.158.147.232z"/><path d="M36.306 68.618l.025.11.05.257h-.05l-.074.426-.414.122-.1-.61.1-.232.463-.134zm.9.61l.1.16v.414l-.17.152-.39-.366.025-.23.073-.06.366-.074zm1.366.7l.05.287-.147.182-.408-.158-.1-.262.024-.28h.366l.22.232zm9.758 2.256L48.187 72l-.05-.4.17-.08.073.08.025.122-.074.445m.586-.6l-.1-.61h-.043l-.05-.6-.146-.287-.4-.4c-.78-.256-1.025.427-1.36.793l-.152.207-.073.262h-.025v.167l-.073.232h-.047l-.05 1.068.092.964.073.134.537.854 1.024-.06.293-.183.342-.622h.043l.06-.287c-.06-.628.122-1.1.048-1.7M27.87 76.26l.1.16.183.287.06.28-.293.342-1.4.366-.775-.39.092-.207h.024l.08-.317H26l.043-.287.268-.34 1.147-.232.415.34zm25.322 9.228h-2.927l-1.025-.122-.2-.183.165-.08 2.2.23a5.139 5.139 0 0 1 1.781.11v.037zm20.883 2.44c-.9-.317-1.952-.317-2.806-.652a12.548 12.548 0 0 0-2.482-.268l-.872-.183-.83-.16a17.145 17.145 0 0 0-2-.207c-.586-.317-1.415-.1-1.952-.415-.975-.06-1.726-.518-2.7-.4a12.923 12.923 0 0 0-1.976-.208c-.7-.207-1.56-.1-2.257-.232l-1.323-.1a12.825 12.825 0 0 0-2.848-.1 12.216 12.216 0 0 0-2.635-.262l-1.19-.183-.22.47h-.05l.025.263.586.6a4.585 4.585 0 0 0 2.409.262 12.871 12.871 0 0 0 1.927.049c.6.1 1.244-.025 1.83.134l1.2.1c.78.06 1.537-.024 2.293.1.585-.152 1.073.134 1.658.16l2.092.158c.714.232 1.562.1 2.27.287a9 9 0 0 1 1.927.183l1.366.122 1.14.244 1.025.158c.732.256 1.6.232 2.342.488l1.262.256 1.05-.134.05-.073-.293-.6m-29.616.8a18.369 18.369 0 0 1 2.391.391l1.037.243.658.232c.6 0 1.22.208 1.848.232l.52.58v.3c-.927-.06-1.708-.427-2.61-.518l-1.17-.268c-1.4-.05-2.56-.805-3.995-.488l-.854-.6-.09-.317.915.048 1.34.1"/><path d="M73 95.593a3.673 3.673 0 0 1-1.921-.1c-.885-.366-1.927-.6-2.83-.94v-.025l-1.238-.207a10.09 10.09 0 0 0-2.055-.445l-1.116-.342c-1-.445-2.245-.805-3.293-1.17-1.037-.158-1.9-.6-2.83-.835l-.976-.44.025-.08a5.048 5.048 0 0 1 1.488.263 14.758 14.758 0 0 0 2.44.7l.8.1a11.832 11.832 0 0 1 2.171.628c.6.152 1.067.6 1.757.6.83.3 1.83.488 2.6.78l1.537.305a11.946 11.946 0 0 1 1.708.445l.805.244.945.384h.025l-.05.135zm1.366-.05L74 95.117l-.83-.6c-.537.025-.83-.34-1.366-.286a2.694 2.694 0 0 0-1.415-.47 22.606 22.606 0 0 0-3.141-.707l-1.123-.488-1.238-.39-.9-.366-1.17-.34c-1.367-.445-2.824-.6-4.24-.994a10.81 10.81 0 0 1-1.9-.409c-2.36-.366-4.53-1.037-6.818-1.525a10.774 10.774 0 0 0-1.86-.486l-.56-.1a16.58 16.58 0 0 1-1.757-.342l-.586-.1-1.268-.4a2.235 2.235 0 0 0-1.952.183l-.09.122.073.4.652-.263.952.263a14.169 14.169 0 0 1 2.391.573l1.17.44a6.6 6.6 0 0 1 2.074.287 5.59 5.59 0 0 0 2.2.286l.268.183a3.743 3.743 0 0 1 1.367.5l-.464.232-.366.445.074.05c.652.232 1.34.336 2.012.573a14.6 14.6 0 0 0 2.415.6l3.952 1.2a15.371 15.371 0 0 1 2.013.6l.512.183c.653.1 1.1.488 1.78.52l2.17.622 1.507.4 2.866.732a7.435 7.435 0 0 1 1.757.159l1.195-.47v-.4m-47.676-3.52l.073.262-.17.152-1.293-.1-.024-.3.146-.208.976-.11.292.317zm35.556 9.593l-.147-.05-1.414-.628-1.27-.652-1.238-.653-1.39-.488c-.634-.293-1.39-.45-2-.793a4.573 4.573 0 0 1-1.708-.793l-1.025-.335c-.512-.207-.9-.6-1.464-.6l-.756-.262-1.384-.6-.6-.427.167-.207c.83.085 1.39.6 2.238.707l.317.1a14.534 14.534 0 0 1 2.214.915 15.582 15.582 0 0 1 1.659.652l1.17.6.707.4a8.643 8.643 0 0 1 1.727.86l1.08.47.7.28 1.464.81.95.7v.134zm3.14 1.354l-.732-.567-.762-.714-1.525-1.067c-.66-.567-1.63-.83-2.318-1.4l-.95-.488-.415-.183-.488-.292c-.56-.025-.78-.44-1.244-.6l-1-.44-1.317-.53-1.14-.44-.95-.384a8.7 8.7 0 0 0-1.879-.811c-.628-.08-1.17-.366-1.756-.488l-.06-.086-1.464-.048-.274.3-.062.293h-.024l.146.52.732.652 2.732 1.14 1.312.6a8.58 8.58 0 0 0 1.848.731c.488.476 1.34.44 1.908.854.9.1 1.38.708 2.287.81l.06.074 1.2.573.878.34a5.048 5.048 0 0 1 1.976.988 11.3 11.3 0 0 1 1.537.488l.506.293 1.146.122.123-.183-.03-.08m-25.3 4.39h.1l.147.207a3.072 3.072 0 0 0 1.4.61l.568.488-.025.293-.05.1.53.318a9.828 9.828 0 0 1 1.61.609l.4.342.2.427.122.1.1.244.05.39h.048l2.36 2.866.22.4h.06c.64.88 1.842 1.83 2.165 2.842l.27.415a7.885 7.885 0 0 1 1.122 2.116l.073.958.074.366h.024l.122.213.1.732h.043l.183.415.1.213c.14.537.775.732.976 1.647l.073.16.092.384.06.213.073 1.068.244.628.153.256.213.293.6.463.8.81.122.244.1 1.068h-.048l-.074.366h-.04l-.025.365h-.043l.02.05h-.02v.06h.043l.025 1.464.1 1.305.122.7.025.318h.05v.134l.03.463.043.263h.025l-.025 1.2.27.366-.025.445h-.05l-.05.366h-.048l-.025.207h-.024l-.074.336-.268.268-.27-.134v-.37h.05l.08-.488.092-.488v-.158h.043l-.025-.3-.6-.6-.048-.305h.048l.08-.293v-.4h.024v-.305h.043l-.043-.47-.1-.23-.073-.232-.073-.1-.074-.335h-.05l-.02-.854-.024-.525h.043v-.853h-.043v-.934h.043v-.445h.048l-.146-.835h-.05l-.09-.183-.488-.488-.506-.52-.488-.628-.043-.232h-.05l-.025-.244-.06-.622-.183-.5-.06-.4h-.043l-.1-.573-.073-.16-.1-.207-.4-.732h-.025l-.122-.183-.22-.427-.073-.122-.17-.244h-.04l-.1-.256-.1-.336-.024-.243h-.05l-.073-.6-.05-.3-.1-1.02h-.048l-.1-.262-.244-.488-.146-.317h-.132l-.122-.183-.214-.384h-.024l-.122-.244a8.186 8.186 0 0 0-2.2-2.635l-.56-.75h-.018l-.2-.342c-.83-1.372-1.745-1.36-2.214-2.817l-.488-.75h-.043l-.83-.47-1.22-.6-.03-.232h-.04l-.147-.34c-.61 0-.73-.52-1.116-.732l-1.073-.6-.213-.6.3-.122.586.305"/><path d="M26.255 130.874l-.048.81h-.05l-.025.232h-.024l-.074.884.05.1h-.025l-.024.94h-.05l-.1.366v.08l-.293.1-.317-.122-.22-.427-.09-.122-.122-.262-.122-.342-.244-.335-.025-.08-.585-.805-.122-.134-.244-.488-.025-.232h-.046l-.213-.366-.366-.1-.2-.158-.262-.366-.854-.732c-.586-.244-.9-.793-1.732-.7l-1 .305v.08l-1.22-.05-.025-.08.025-.39 1-.915.506-.4.757-.573.683-.6.78-.628.6-.44c.537-.208.95-.574 1.537-.757l.488.08.274.256.263.293.122.262.268.305.2.244.1.23.122.476h.05l.1.287.123.33.1.293h-.017l.073.366.073.158.05.183.17 1.037h.05l.073 1.22h.025v.628l-.05.073h.05zm.512-.628l-.048-.622-.122-.6h.024l-.1-.628h-.05l-.05-.488h-.05l-.048-.232-.074-.6-.1-.268h-.05l-.146-.567-.074-.342h-.048l-.1-.445-.122-.232-.1-.23-.1-.214-.06-.073-.885-.81-.853-.6c-.927-.262-1.537.415-2.074.835l-.512.415-1.025.445-.27.263-.262.262-.39.335-.488.39c-.53.262-.78.792-1.262 1.146l-.22.232-1.367 1.6v.232h.05l.025.158.342.445a6.763 6.763 0 0 0 2.9-.244l1.05-.207c.586-.16.78.305 1.22.518l.567.574.653.445.03.1h.05c.427.634 1.02 1.2 1.39 1.878l.244.44h.048l.05.16.1.183h.05l.122.366h.042l.244.6.122.152 1 .524.488-.256.048-.06.02-.244.1-1.146h.05v-.464h-.05v-.81h.05v-.3h.025l.018-.317h.06l.073-.518h.025l.025-.232h.024v-.342l-.17-.445m16.74 15.857l-.17.183-.635-.1a15.118 15.118 0 0 1-2.122-2.287l-.074-.08a1.869 1.869 0 0 0-1.6-.518l-1.244-.263c-.658-.158-1.17.232-1.78.073l-.22-.3-.02-.04h.025l.025-.44.17-.183.6-.488.952-.83v-.06l.268-.336.732-.793.463-.384a2.883 2.883 0 0 1 1.629-.994l.83-.08.78.683.146.183.1.152.243.622h.05l.073.244.074.134.122.257.073.4.05.366c.165.58-.03 1.488.165 2.037l.08.427h.05l.06 1.195h.03l.05.622.073.366-.05.232m.806-.207l-.1-1.02-.043-.488h.025l-.074-.34-.024-.1-.22-1.02h-.025v-.122h.03v-.81l-.06-1.067h-.043l-.05-.47-.073-.183-.1-.262h-.05l-.05-.317-.073-.122-.1-.213h-.024l-.074-.153-.22-.244-.488-.652-1.025-.915-.732-.16c-.732-.158-1.037.39-1.63.6v-.037l-.78.574-1.22 1.2-.122.208v.1l-.2.366-.732.885-.6.61-.323.47-.122.232-.366.445v.366l.14.207a2.192 2.192 0 0 0 1.976.445l.854.025 1.385.05.024-.28h.06l.025.232H39.1l.073.207h.147l.9.305v.05l.415.366.1.207.414.574.092.122.4.524h.05l.415.415 1.17.335 1-.183.17-.335h.05v-.6h-.05zM121.7 86.054l.025.207.17.94.073.317.05.463h.048l.123.488h.048l.05.525h.05l.05.305h.048l.025.207.22.81h.024l.025.305.1.6h.05l.05.415h.695l-.018-.336h-.05l-.018-.244-.074-.44h-.06l-.06-.3h-.028l-.1-.317-.073-.335-.05-.574h-.05l-.08-.3h-.018l-.1-.34-.024-.336-.074-.134-.183-.915-.018-.317h-.05l-.048-.335-.074-.183-.1-.256h-.05l-.05-.342h-.05l-.073-.366-.195-.463-.1-.305h-.048l-.122-.39-.1-.213-.1-.207-.123-.287h-.024l-.122-.573h-.05l-.122-.52-.1-.292-.1-.183h-.05l-.122-.366-.1-.232-.17-.445-.1-.263h-.043l-.122-.61-.1-.232h-.03l-.092-.366h-.05l-.122-.488-.1-.183-.1-.207h-.037l-.122-.366-.09-.336-.1-.262-.195-.5-.092-.28-.146-.366h-.054l-.024-.256-.08-.286-.122-.6h-.03l-.074-.384-.06-.135-.08-.23h-.05l-.06-.4H118l-.06-.207-.06-.366-.1-.287h-.06l-.122-.4-.1-.232-.4-.628-.287-.335-.415-.6.05-.464.06-.317h.03l-.03-.335-.244-.58-.1-.256h-.05l-.05-.158h-.05l-.122-.232h-.048l-.05-.16h-.05l-.17-.305a37.6 37.6 0 0 1-2.458-4.2l-.244-.5h-.06l-.22-.37a8.012 8.012 0 0 0-1.708-1.854l-.634-.518-.88.3.147.427.95.6 1.025.853.463.476.6.6-.22.28-.366.366-.147.153-.073.085.073.256.074.086.994.366v.05h.05l1.854 2.53.1.23h.05l.366.6v.287h-.05l-.043.34h-.06l-.268.39-.05.048.025.122.317.574.537.6.024.073.708.81.122.256h.05l.244.6.122.152v.39h.048l.074.366.05.4.09.445.122.232.147.287h.024l.073.317h.043l.08.518h-.025l.05.4h.048l.062.305.08.16.06.366.1.262.14.208.122.3h.043l.1.44c.225.628.567 1.23.83 1.9l.06.427h.05l.08.366.14.567h.06l.042.366h.05l.122.446h.05l.1.286.092.208.122.292.09.256h.05l.244.52.14.4.1.232h.048l.147.415.1.244.122.4h.05zM47.614 36.9v.262h-.05l-.024.232h-.025l-.073.256-.146.183-.415.476-.927-.318-.268-.34-.14-.146-.1-.263-.073-.158-.1-.366h.06v-.262h.024l.018-.574.184-.256.243-.335 1.025-.244.512.5.147.427h.048l.123.646.024.287h-.05zm.6-.6l-.073-.622-.1-.183-.2-.293-.025-.05-.22-.207-.39-.366c-.414-.256-1 .03-1.537-.1l-.44.335-.24.318-.244.6h-.024l-.08.34h-.05v.52h.05l.08.707h.024l.122.568.092.262h.05l.17.4.488.085 1.512.153.27-.214.365-.518.1-.158v-.05l.268-.52h.05l-.024-.945"/><path d="M86.9 41.777v.023l-.4-.4-.17-.153-.415-.61-.025-.08-.756-.707-.7-.592-.854-.762-.147-.208h-.048l-.025-.073-.146-.244 1 .47c.9 1.037 1.708 1.4 2.44 2.256l.122.366h.05l.048.58-.048.05m-.586 2.56l-.293-.073.045-.133.39-.134.024.048-.17.293M66.02 41.32l-.153-.366.714-.268.09.5-.652.122m-4.806.366l-.22.3-1.067.707-1.586.623a15.946 15.946 0 0 0-2.391.89l-1.22.335-1.678.934a7.9 7.9 0 0 0-2.317.994l-1.513.652A10.574 10.574 0 0 0 46 50.083l-.3.336-1.025-.336-.274-.44-.09-.213-.324-.39-.042-.158h-.05l-.244-.366-.22-.415-.122-.317-.2-.366-.073-.317H43l-.1-.262-.025-.183h-.05l-.073-.415-.073-.427h-.05l-.025-.366-.024-1.22.048-.4-.048-.488v-.915h.028l.074-.3v-.94h-.05v-.628h.05l-.074-.6h-.024l-.074-.384h-.048v-.524l.17-.122.58-.293.1-.153.146-.207V37.8h.073v-.244h.05l.018-.47h.03l-.03-.6-.164-.8-.342-.427-.512-.183v-.415h.028l.025-.286h.05l.048-.342h.05l.586-1.012.1-.232.122-.16.214-.4.152-.16.043-.256h.06l-.073-.366-.074-.1-.146-.232-.122-.262h.025v-.183h.024a16.963 16.963 0 0 0 0-1.928l.05-.024-.025-.134h.025l-.05-.7h-.053l-.048-.39h-.05l-.1-.47-.024-.208h-.05l-.05-.4h-.05l-.024-.567a12.049 12.049 0 0 1-.073-2.135l.042-.854h.03l.073-.232v-.9h.05l.073-.518h.025v-.427l.1-.05.2.158a15.23 15.23 0 0 0 1.1 2.287l.183.653h.03l.122.427h.05l.1.207.018.1.05.366.024.024H45.4v.757h-.05l-.06.574.05.024h-.05l.05.025h-.05v.183h.05v.073h-.05v.518h-.025l-.03.6h-.05l.05.836h-.05v.463h-.043l-.028.968H45.1v.707h.05l.146.153.506-.47v-.1h.025v-.58l.08-.884V28.6h.025l-.025-.7v-.4h.025l.018-.5H46l.08-.463v-.6h.02l.024-.732h.025l-.025-.03h.025l.06-1.353h.024l.08-.47v-.207h.042l.074-.366h.024l.074-.39h.024l.074-.6h.06v-.836h-.06v-.366h.06l-.025-.024h.025l.042-.366h.05l.05-.427h.05l.073-.335h.025l.073-.28.122-.1.44.6.074.262.146.232.1.183.123.4h.024l.122.232.074.263.073.182.073.464h.025l.1.244.074.1.1.244v.39h.05l.05.292h.048l.123.3.243.427.1.287.024.232h.05l.05.5h.05l.048.75a3.724 3.724 0 0 0 .629 2.318l.445.47a2.687 2.687 0 0 0 1.506 1.019l1.025.6.708.622.17.335h.05l.1.183a17.713 17.713 0 0 0 1.122 2.165l.244.256c1.39 2.7.83 1.36 2.653 3.208l.27.4.463.914h.025l.122.366.1.366h.05l.122.47h.05l.1.207.2.366.074.16.024.08 1.342.647.122.524-.122.244M42.16 38.16l-.122-.207-.074-.915.05-.4h.025l.08-.3.183-.317.22-.28.1.134.123.146-.44.836.2.268.22.2.122.085-.025.3h-.048l-.22.317-.4.122m-35.74 79.3l.927-.622 2.012-1.22.39.268.024.183.05.6.1.756h.018v.854H9.92l-.06.964.06.244h.018l.1.414.024.336h.05l.025 1.256.1 1.037.1.793.024.036h-.03l.048.074h-.048l.024.048h-.024l-.05.4-.122.122-.17-.025-.366-.61-.05-.1-.366-.6-.286-.336-.22-.463h-.03l-.22-.366-.122-.1c-.2-.408-.78-.445-1.323-.408a15.873 15.873 0 0 0-1.83.488l-.8.426-1.22.6-.342-.08-.048-.208H2.8l.08-.47.122-.262.1-.16v-.21l.153-.16.164-.463h.03l.06-.244c1.45-2.037.927-.56 2.22-2.135l.683-.573M73.4 38.245l.08-.048.335-.263h1v.16l-.3.262-1.1.16v-.27zm38.77 23.432a12.068 12.068 0 0 1-1.628-1.775l-.323-1.012-.366-.293-.14-.256-.122-.518-.95-1.22c-.58-.415-.878-1.116-1.555-1.433l-.805-.653-.17-.256.06-.122.146-.244v-.384l-1.015-.81-.52-.525-1.22-1.06a4.383 4.383 0 0 0-1.927-.628 11.75 11.75 0 0 1-2.049-.781l-1.22-.6-1.244-.795-.512-.427-.073-.366 1.366.3.83-.048.05-.336-.17-.244-1.074-.28-1.122-.16-.945-.732.22-.158 1.586.292.58.1a4.779 4.779 0 0 0 1.659.317l.9-.268-.122-.232a33.792 33.792 0 0 1-3.415-.829l-1.147-.452.6-.286a16.273 16.273 0 0 1 1.952.158 10.928 10.928 0 0 1 3.214.964l1.268.6.39-.214v-.41l-.317-.262-1.074-.8c-.634.122-.945-.518-1.6-.4a13.511 13.511 0 0 0-3.019-.336l-1.22-.183-.17-.23.17-.16.995-.073c.536-.085 1.073-.085 1.634-.134a8.112 8.112 0 0 1 2.629.079l.146-.1v-.262c-1.116-.488-2.44-.207-3.66-.317l-1.464.085-.146-.183 1.074-.61c.634-.366 1.463-.415 2.05-.885a5.623 5.623 0 0 1 1.829-.335l1.244-.89.1-.183.323-.61.262-.44.074-.47h.024l.025-.342.025-.3.073-.835.024-.836.074-.024-.074-.6.074-.3V33.6l-.05-.05-.025-1.982.123-.317-.05-.6.05-.976.048-.61.05-.025.05-1.878-.05-.28c-.17-.9-.03-3.366-.22-4.4l-.1-.58c.05-.574-.1-1.037-.05-1.617l-.1-.23.048-.574-.048-.024-.05-1.067-.074-.208-.1-.183v-.6l-.043-.024-.078-.756-.17-.366-.05-.525-.073-.6-.05-.61v-1.33l-.073-.024.05-.06-.05-.025.05-.366h-.025l-.025-.854-.048-.03-.045-.8a35.642 35.642 0 0 0-.958-4.952l-.213-.6c-.268-.6-.305-1.512-.732-2.013l-.488-.26-1.3.293-.14.287-.195.207-.2.335-.195.232-.317.6-.44.884-.414.885-.244.414-.27.488-.164.214-.153.232a9.954 9.954 0 0 1-1.1 1.585l-.226.4-.488.732-4.88 9.453-.17.3-.1.317c-.976 4.27-2.623 7.154-4.636 11.075l-.06.232-.22.366.122.34.1 1.464c.366.567.927 1.067 1.342 1.586l.512.6c.244.854 1.055 1.56.976 2.44v.28l-.6-.3-.8-.628a3.661 3.661 0 0 0-1.854-1.22c-.287-.256-.53-.836-1.1-.573l-.22.414-.22.16-.342.445c.653.6 1.586 1.147 2.287 1.83l.952.835.926 1.037.806.6.073.256.073.366-.073.183-.19.16-.488-.263-.976-.78-.652-.6c-.537-.445-1.2-.707-1.757-1.147l-.884.183.585.568c.6.475 1.25.707 1.806 1.22l.17.336-.262-.05c-1.128-.1-2.147-.518-3.293-.653-.56.025-.976-.366-1.56-.286-.6-.366-1.537-.16-2.214-.5l-.1-.122-.335-.183c-.757.122-1.49.1-2.257.158l-.518-.1-.873-.4.043-.59c.1-.708 1.025-.27 1.39-.732.762-.025 1.27-.628 2.025-.628l.195-.39-1.147-.122.05-.11.22-.208 1.22-.47-.122-.232-.512.08-.9.366c-.652-.03-1.22.1-1.872.122l-.445-.287-.488.66c-.165.4.268.622-.1 1.586l-.146 1.116-.732.183c-.775.158-1.555.1-2.317.286l-1.263.183-.225-.81-.025-.463.08-.52.043-.024-.043-1.1.043-.158-.043-.183.043-.47.122-.232.05-.414.043-.488.05-.366-.074-.214-.122-.6-.14-.335-.04-.605-1.22-.81-.775-.6a3.2 3.2 0 0 1-.195-2.817l.1-.232.17-.336 1-2.97.06-.445.305-1.36h.025l.024-.256.092-.52c.476-1.567 1.122-3.025 1.647-4.56l.14-.342.05-.262c1.372-3.86 2.488-4.928 4.49-8.075l.872-1.067.586-.6.268.256c.323 1.14.512 2.317.732 3.464l-.05 1.464-.05.024.146.317.342 3.416.025.914.335 1.8.1.28v.762l.05.025c-.05.6.1 1.2.05 1.878l.048.366.122.342v.94l-.09.44-.025.653-.05.207-.048.653-.05.048-.025.63.025.652.05.16.1.23.05.793.06.232.1.232.05.445.09.262.06 1.122h-.024l-.06.52-.427 1.037a2.569 2.569 0 0 1-2.049 1.146l-1.263.6-.634.622v.366l.122.183.025.4.274.16 1.634-.427.793-.158.878-.16-1.244-.4-.536.03-.05-.158 1.22-.653a9.49 9.49 0 0 0 1.506-1.14l.247-.452c.463-.475.305-1.537.293-2.16v-.445l-.074-.366-.1-.4v-1.948l-.042-.024-.122-.427V26.12l.08-.024v-.573l.05-.976-.05-.287-.122-.4v-1.72l.043-.024-.043-.244a33.031 33.031 0 0 0-.323-4.19l-.05-.39c-.317-.927-.006-1.22-.366-1.95l-.05-.628-.125-.366c.073-.568-.073-1.037-.03-1.635l-.06-.47c-.184-2.44-.58-2.245-.88-3.94l-.122-.336-1.048-.024-.506.567-.8.762-.08.1-.043.293-.153.256-.335.445-.6 1.067-.506.63c-.946.84-1.013 1.86-1.952 3.05l-.05.287-.146.335c-.5 1.67-1.384 3.1-1.756 4.666l-.27.61-.043.28-.152.366-.122.152c-.53 1.922-1.13 2.4-1.342 4.617l-.073.6-.1.183c-.073 1.537-1.6 3.574-1 5l.122.317.146.28.318.6c.365.622 1.17.61 1.732 1.122l.506.427-.427.854-.732-.305a5.3 5.3 0 0 1-1.872-.994l-1.39-.47-.53.244.635.6a2.288 2.288 0 0 1 1.506.652l-.512.488-.366.464 1.366.085c.635.183 1.44.05 1.952.567l-.122.39-1.537.134-.732.262-.1.183.9-.05 1.34.05.06.6-.3.34-1.83.366-.17.336.342.1 1.414-.427.507.122v.134l-.488.518-1.1.6-1.36.6-1 .573-.56.05.042-.573.05-.3-.073-.342-.092-.286-.707-.366L60.5 40l-.05-.244-.1-.366-.44-1.2-.073-.122-.22-.427c-.22-.775-.854-1.22-1.366-1.83l-.927-.732c-1.573-2.012-1.616-3-2.927-4.848l-1.17-1.068a5.114 5.114 0 0 1-2.409-1.537l-.05-.335-.05-.342-.122-.335-.025-.793-.122-.44V25.3l.05-.6-.092-.256-.1-.214-.092-.414-.122-.16-.14-.518-.122-.16-.153-.4-.263-.415-.122-.415-.018-.34-.146-.263-.415-1.1-.44-.763-.122-.366-.1-.34-.122-.232-.2-.6-.122-.2-.53-.134-.348.335c-.634.927-.762 4.233-.994 5.062l-.244.1-.323-.567-1.067-2.61-.537-.707-.39.085-.122.336-.1.5-.074.335-.1.6-.1.366-.073 1.22-.05.03v.573l-.1.52v1.25l.048.025-.048.158v1.037l.048.03.05.8.488 1.7-.073.6c.073.6-.073 1.256-.025 1.933l.05.415h.018v.793c-1.427 2.525-.988 1.81-1.36 3.933l-.018.8-.08.06.08.41c.012.83.2 1.817.287 2.714l.1.427-.03 1.56-.073.025-.05.4a6.669 6.669 0 0 0 .152 3.659l.2.854h.02l.146.6.44 1.037.27.6.414.756-.634.756-.537.6-.4-.1-.025.08-.146-.08-.512.44-.122-.44.06-.6-.366-.213-.44.652-.274.6-.124.29c-1.006.774-1.342 2.317-2.135 3.39l-.268.366-.1.292c-.317.8-.75 1.525-1.115 2.318l-.39.628-.17.476-.183.232a14.61 14.61 0 0 0-2.44 6.708l-.122.366-.05.756H33l-.03.263-.042.256-.1.244-.05.6-.122.23-.756 1.068-.683.4-.927.415a15.98 15.98 0 0 0-3.415 1.067l-.44.336c-.78.03-1.22.628-1.683 1.018v.08l-.146.244-.043.385-.183.34-.043.81v.488l.043.342.073.384-.024.707-.244.525-.458 1.116-.17.7-.048.1-.39.81-.323-.06-.823.025v-.025l-.708-.335-.95.207.048.366.34.182 1.342.4.975.47.153.287.122.47v.854l-.06.244-.165.232a20.378 20.378 0 0 0-2.1.469 19.89 19.89 0 0 0-2.463.958l-1.36.627-.018.342.147.366 1.238-.366 1.524-.732a17.19 17.19 0 0 1 2.9-.915l.146.244.074.317-.074.4-.1.232-.05.287-.122.207-.092.4-.048.4-.1.183-.122.4-.976.6-.366.524 1.293-.134.537.525.05.573.1.262.1.305.122.183.05.6.09.244.08.366.09.232.1.317.17.262-.122.366a4.824 4.824 0 0 1-1.61.518l-.9.336-.366.317-.1.415.1.6.074.23-.074.025-.512.707-.415.89-.335.59-.69.945-.78.415-1.1 1.037-.366.5-.074.207-.1.244-.153.257-.945.81-.342.628c-.244.75-1.1 1.037-1.464 1.69-.183.574-.915.622-1.22 1.122a19.57 19.57 0 0 0-1.585 1.4l-.9.708-.87.416.366.63-.53.73a4.513 4.513 0 0 0-1.366 1.33l-.414.518.042.232.195.653-.09.158-.885 1.013-.262.366-.415.61-.076.36.122.208-.05.445-.512.732-.292.475-.27.385-.024.366-.123.47-.146.47-.907 1.07-.195.293-.1.256-.732 1.037-.274.628-.043.152-.073.39-.1.262-.09.366-.08.653-.024.933-.06.158.09.342-.61.756A10.263 10.263 0 0 1 .2 127.4l.092.158A5.139 5.139 0 0 1 .028 131l-.028.484.244.158.22-.4.1-.47.048-.426.123-.208.1-.28.1-.427-.05-.94.213-.628.153-.305.317-.414v-.366l-.03-.336.08-.244.854-1.036.61-.574.14-.244v-.1l-.415-.708.146-.1a5.763 5.763 0 0 1 1.927-.61c.683-.317 1.44-1.02 2.27-.574l1.238.988.27.4.1.28.092.263.9.853.878-.122.44-.707.1-.366.1-.34.122-.287v-1.744l-.08-.48-.043-.366-.05-.653h-.048v-3.488l-.1-.317-.122-.287-.05-.256-.4-.707-1.464.286-.244.214-1.262.6c-.52.256-.884.8-1.464.835l.22-.628.2-.525.1-.4.042-.488c.6-.335.934-.854 1.5-1.2l.09-.244-.53-.06-.366.08.14-.232.927-1.036c.708-.342.976-.976 1.512-1.434l.195-.73-.61-.05v-.132c2.2-1.9 1.964-3.123 5.214-5.21l1.317-1.33c.537-.025.6-.574 1.025-.763.75-.914 2.05-1.14 3.05-1.872a7.736 7.736 0 0 1 3-1.012l1.6-.427.793-.16.05.58.366.12a4.454 4.454 0 0 0 2.573.708 1.852 1.852 0 0 1 1.83.122c.6.16.927.6 1.586.762l1.025.342 1 .774.793.7c.44.5 1.17.6 1.56 1.256l.957.622.854.47a17.1 17.1 0 0 0 1.683 1.037l.513-.1-.318-.6-1.22-.628-1.507-.94a8.911 8.911 0 0 1-1.756-1.275l-1.22-.988-1.27-.9a14.911 14.911 0 0 1-1.8-.653 13.094 13.094 0 0 0-1.415-.6l-1.22-.06-1.073-.47c-.56.134-.586-.488-1.074-.567a8.991 8.991 0 0 0-1.9-.061c-.652-.08-1.1.6-1.732.262-.53.025-.994.287-1.506.305a7.965 7.965 0 0 0-1.891.939l-.95.488-1.025.244.05-.34c.366-.6 1.17-.885 1.708-1.464l.225-.024.653-.75.1-.318.122-.183.44-.524.658-.964.878-.835.22-.525.335-.488.122-.463c.458-.427 1.17-.4 1.732-.6l.122-.207-.365-.574.225-.707c-.53-1.976-1.506-2.88-1.25-5.39l.122-.244.043-.366.1-.287.048-.335.113-.29v-.567l.1-.446.1-.81.123-.256v-.6l-.123-.3-.1-.366.043-.317.1-.488-.025-.3h.025l.024-.317c.7-1.22.317-1.055.757-1.927l.61-.756-.17-.54-.152-.622-.06-1.36.61-1.45.854-.232 1.1.6c.714.134 1.055.81 1.543 1.22l.122.207.366.6.17.44-.06.1v.78l.22.244.628-.207v-1.073l-.146-.4-.123-.34-.22-.415a6.049 6.049 0 0 0-1.342-1.305l-.347-.287-.976-.646.95-.6.366.134.043.256c.567.6 1.1-.415 1.78-.232l.17.342v.286l.512.025 1.63.1c.69.39-.385.52-.263.988l1.39.446-.073.23-.147.232.05.244.823.293.275-.244-.64-.622.123-.47.042-.03-.042-.183-1.097-1.5-.8-.292-.586-.47.1-.732 1.292-1.037.366.183.366-.134.05-.152.06-.89.092-.152.048-.44.123-.476.042-.384.1-.16.055-.422.1-.256-.08-.427-.366.262-.092.232-.048.366-.1.287-.214.94-.122.335-.03-.23.1-.3v-.683l.048-.025.043-1.067.1-.3c.3-1.147.3-2.452 1.025-3.415l.427-.836.488-1.17c1-1.72 1.988-4.27 3.05-5.812l.366-.7.317-.318-.024.653.292.232.287-.567.37-.898.146-.292.183-.257.366-.122.366.41.56-.256.9-1.17.1-.16.1-.23.707-.7 1.39.183.06.122.122.5.757-.34c.4-.6.945-1.068 1.384-1.616a15.516 15.516 0 0 1 2.44-1.922l.243.05.885-.134a15.33 15.33 0 0 1 2.214-1.22 7.968 7.968 0 0 1 1.854-.915c.537-.262 1.17-.262 1.677-.518.927-.244 1.635-.81 2.49-1.1.707-.134 1.22-.628 1.97-.6.69-.122 1.324-.47 2.025-.6a6.537 6.537 0 0 1 1.927-.3l.915-.244a5.768 5.768 0 0 1 1.909-.256 12.427 12.427 0 0 1 1.726-.263c.732-.262 1.39.208 2.123.122a20.564 20.564 0 0 1 6.1.5c.806.23 1.732.12 2.538.384l.61.085.708.1.366.488-.073.268.73.6-.872.44-.024.262c.506.342 1.244.122 1.847.183l1.1.073 1.1-.048.366.518.44.08.146-.232.05-.4.1-.6c.45-1.372.232-3.256.488-4.513v-1.177c-3.123-6.71-4.1-2.958-.806-9.795l.17-.445c.037-1.323 1.342-2.67 1.36-3.757l.08-.487.17-.3.073-.47h.05L88.97 23c2.074-6.257 6.373-12.6 9.514-18.3l.683-.915.946.1.1 1.323.048.025.122.445.14.34.1.263.122.4.06.47.09.6.074.7.1.4v.653l.05.05.073.963h.03l.043.854c.164.348.286 1.238.44 1.464v.707l.05.025v2.2l.06.05.042.34.1.263.08.366.092.652v.933l.1.263.06.61.1.415.05.6.122.16-.073.152.073.58.025 1.536.073.025.05 1.433.073.58h.03l-.06.074c-.025 1.232.3 2.524.2 3.305l-.216 1.263-.073.024v.6l-.1.427v.732l-.05.024-.05.866.05.8v1.488l-.122.342.073.384v.683l-.073.05v.854l-.025.573-.122.305-.05.518-.1.366-.17.6a2.753 2.753 0 0 1-2.336 1.013c-.537-.025-.9.4-1.39.463a9.483 9.483 0 0 1-1.847.47 3.236 3.236 0 0 0-1.519 1.28l-.122.287c.14 3.293-1.464 4.708-1.488 6.465l.262.244.64-.47.122-.207.1-.317.872.23a4.933 4.933 0 0 1 1.757.976 12.957 12.957 0 0 0 3.141 1.61l.44.183c.56.08 1 .4 1.56.488.732.5 1.708.7 2.287 1.385l-.06.335-.83.134-.415.3 1.074.628 1.708.964a4.565 4.565 0 0 1 2.134 1.689l.122.342-.2.1a3.522 3.522 0 0 0-1.586-.366l-.488.335.6.366a5.007 5.007 0 0 1 2.464 1.3l.95.94.873.915 1.244 1.385h.292l-.195-.488M46.784 36.032l.1.158.024.7.025.414-.05.06-.6.183-.22-.158-.123-.262-.22-.732.183-.208V36.1l.262-.122.635.05z"/></svg>