<svg xmlns="http://www.w3.org/2000/svg" height="124" width="640" viewBox="0 0 640 123.87" fill="#fff"><path d="M523.513 40.165c-3.478-2.46-6.005-4.956-6.005-8.034H498.17c0 5.54-2.527 8.034-5.645 8.034h-5.164V96.4h100.42V40.165h-64.63zm-6.006 16.067H499.4v-8.034h20.084v6.464zm34 31.276c-11.457 0-20.78-9.202-20.78-20.513s9.322-20.04 20.78-20.04 20.778 8.728 20.778 20.04-9.32 20.513-20.778 20.513zm11.17-20.513c0 6.08-5 11.028-11.17 11.028s-11.17-4.948-11.17-11.028 5-11.027 11.17-11.027 11.17 4.947 11.17 11.027zM640 32.515L615 96.25l-19.184-7.693V77.695l13.323 5.452 17.592-44.844-65.92-25.205-6.1 19.034h-11L554.95-.003l85.053 32.52zm-606.05-4.008c16.562-.38 32.107 13.1 33.856 29.605C69.9 72.627 61.362 87.7 47.98 93.6c-8.106 4.026-17.26 2.8-25.98 2.995h-8.518v27.3H-.01L.03 60.7c.442-15.685 13.287-29.735 28.796-31.823a34.55 34.55 0 0 1 5.126-.372zm0 54.582c9.733.244 18.86-7.35 20.314-16.992 1.94-9.706-4.252-20.135-13.716-23.046-9.142-3.244-20.14 1.027-24.604 9.66-3.464 5.898-2.234 12.87-2.464 19.37v11h20.47zm40.382-54.912h13.34v68.08h-13.34v-68.08zm53.43 42.983h.486l18.963 25.284h16.53l-25.77-35.008 22.853-33.063h-16.532L128.25 51.7h-.486L111.72 28.37H95.19l22.853 33.063-25.77 35.008h16.532zm66.19-42.983c13.512-.267 26.472 8.585 31.472 21.082 2.6 5.804 2.574 12.234 2.5 18.465v28.532c-12.04-.04-24.085.083-36.124-.065-13.842-.676-26.5-10.77-30.462-24.013-3.633-11.515-.615-24.886 7.936-33.485 6.388-6.608 15.465-10.604 24.687-10.516zm20.47 54.586l-.1-22.7c-.798-10.142-10.193-18.64-20.37-18.378-9.677-.234-18.8 7.274-20.314 16.854-1.774 9.194 3.505 19.212 12.28 22.643 5.404 2.357 11.373 1.385 17.085 1.592h11.42zm54.1-54.256c15.98-.394 30.9 12.178 33.455 27.916 2.887 14.915-5.54 31.028-19.428 37.168-13.573 6.406-31.025 2.278-40.36-9.46-5.785-6.814-8.277-15.874-7.784-24.708V1.216H247.9v27.3l20.624.001zm0 54.582c10.247.274 19.616-8.33 20.367-18.525 1.286-10.133-6.226-20.324-16.255-22.166-5.546-.76-11.18-.25-16.766-.398h-7.97c.087 7.7-.184 15.397.155 23.078 1.07 10.16 10.26 18.2 20.468 18zm73.127-54.912c13.512-.267 26.47 8.586 31.472 21.082 2.6 5.804 2.574 12.234 2.5 18.465v28.532c-12.04-.04-24.085.083-36.124-.065-13.842-.676-26.5-10.77-30.462-24.013-3.633-11.515-.615-24.886 7.936-33.485 6.388-6.608 15.465-10.604 24.687-10.516zm20.47 54.586l-.1-22.7c-.798-10.142-10.193-18.64-20.37-18.378-9.677-.234-18.8 7.274-20.314 16.854-1.774 9.194 3.505 19.212 12.28 22.643 5.404 2.357 11.373 1.385 17.085 1.592h11.42zm87.75-54.42l-.042 63.022c-.5 16.533-14.697 31.392-31.284 32.256-3.15.167-6.308.065-9.463.093V110.22c5.758-.03 11.917.556 17.017-2.705 6.37-3.573 10.418-10.78 10.274-18.066-11.96 9.644-30.502 9.143-42.133-.8-8.474-6.84-13.105-17.846-12.45-28.675v-31.62h13.492l.1 36.058c.733 9.894 9.555 18.266 19.47 18.503 10.047.772 19.717-7.03 21.216-16.97.605-5.946.175-11.952.305-17.925V28.343l13.497-.001z"/></svg>