<svg xmlns="http://www.w3.org/2000/svg" viewBox="0 0 18 18" width="100%" height="100%" fill="#e06c52"><path d="M16.5 18h-15A1.5 1.5 0 0 1 0 16.5v-15A1.5 1.5 0 0 1 1.5 0h15A1.5 1.5 0 0 1 18 1.5v15a1.5 1.5 0 0 1-1.5 1.5zM1.5 1a.5.5 0 0 0-.5.5v15a.5.5 0 0 0 .5.5h15a.5.5 0 0 0 .5-.5v-15a.5.5 0 0 0-.5-.5zm10.716 5.66a11.664 11.664 0 0 1-2.634 4.363A10.436 10.436 0 0 0 14 13.178a3.659 3.659 0 0 0-.577.784 10.467 10.467 0 0 1-4.494-2.329 12.649 12.649 0 0 1-4.418 2.34A3.241 3.241 0 0 0 4 13.2a11.84 11.84 0 0 0 4.32-2.154 12.346 12.346 0 0 1-2.59-4.385h-1.6v-.795h4.43v-1.84h.816v1.84h4.516v.8zm-5.593 0a10.51 10.51 0 0 0 2.339 3.8 10.23 10.23 0 0 0 2.318-3.8z"/></svg>