<svg xmlns="http://www.w3.org/2000/svg" width="18" height="18"><rect x=".5" y=".5" width="17" height="17" rx="1" fill="none" stroke="#e06c52" stroke-miterlimit="10"/><path d="M12.216 6.66a11.664 11.664 0 0 1-2.634 4.363A10.436 10.436 0 0 0 14 13.178a3.659 3.659 0 0 0-.577.784 10.467 10.467 0 0 1-4.494-2.329 12.649 12.649 0 0 1-4.418 2.34A3.241 3.241 0 0 0 4 13.2a11.84 11.84 0 0 0 4.32-2.154 12.346 12.346 0 0 1-2.59-4.385h-1.6v-.795h4.43v-1.84h.816v1.84h4.516v.8zm-5.593 0a10.51 10.51 0 0 0 2.339 3.8 10.23 10.23 0 0 0 2.318-3.8z" fill="#e06c52"/></svg>