<svg xmlns="http://www.w3.org/2000/svg" width="32" height="32"><circle cx="16" cy="16" r="16" fill="#bdbfc1"/><path d="M19.76 23.1l-.253 1.034-1.816.685a4.8 4.8 0 0 1-1.576.235 3.147 3.147 0 0 1-2.143-.672 2.178 2.178 0 0 1-.764-1.708 5.935 5.935 0 0 1 .057-.821 9.64 9.64 0 0 1 .184-.949l.95-3.357.213-.914a3.931 3.931 0 0 0 .087-.787 1.214 1.214 0 0 0-.266-.9 1.5 1.5 0 0 0-1.014-.254 2.693 2.693 0 0 0-.754.115q-.387.115-.664.22l.254-1.035q.932-.38 1.783-.65a5.341 5.341 0 0 1 1.613-.27 3.065 3.065 0 0 1 2.111.662 2.195 2.195 0 0 1 .741 1.718c0 .146-.016.4-.05.77a5.11 5.11 0 0 1-.19 1.012l-.944 3.344a8.778 8.778 0 0 0-.208.921 4.778 4.778 0 0 0-.092.781 1.127 1.127 0 0 0 .3.908 1.682 1.682 0 0 0 1.034.242 2.985 2.985 0 0 0 .781-.121 4.269 4.269 0 0 0 .628-.209zM20 9.06a1.96 1.96 0 0 1-.661 1.49 2.251 2.251 0 0 1-1.591.616 2.277 2.277 0 0 1-1.6-.616 2 2 0 0 1 0-2.984 2.267 2.267 0 0 1 1.6-.62 2.242 2.242 0 0 1 1.591.62A1.975 1.975 0 0 1 20 9.061z" fill="#1C1D25"/></svg>