<svg xmlns="http://www.w3.org/2000/svg" width="24" height="24"><path d="M17.376 0H6.622A6.632 6.632 0 0 0 0 6.623v10.753A6.631 6.631 0 0 0 6.622 24h10.754A6.63 6.63 0 0 0 24 17.376V6.623A6.631 6.631 0 0 0 17.376 0zm4.494 17.376a4.5 4.5 0 0 1-4.494 4.494H6.622a4.5 4.5 0 0 1-4.493-4.494V6.623a4.5 4.5 0 0 1 4.493-4.494h10.754a4.5 4.5 0 0 1 4.494 4.494v10.753zM12 5.816A6.184 6.184 0 1 0 18.184 12 6.191 6.191 0 0 0 12 5.816zm0 10.238A4.055 4.055 0 1 1 16.054 12 4.059 4.059 0 0 1 12 16.054zM18.443 4a1.562 1.562 0 1 0 1.1.457 1.569 1.569 0 0 0-1.1-.457z" fill="#fff"/>&gt;</svg>